  0
SECTION
  2
HEADER
  9
$ACADVER
  1
AC1015
  9
$ACADMAINTVER
 70
     6
  9
$DWGCODEPAGE
  3
ANSI_1252
  9
$INSBASE
 10
0.0
 20
0.0
 30
0.0
  9
$EXTMIN
 10
-60.0
 20
-60.0
 30
0.0
  9
$EXTMAX
 10
60.0
 20
60.0
 30
0.0
  9
$LIMMIN
 10
0.0
 20
0.0
  9
$LIMMAX
 10
420.0
 20
297.0
  9
$ORTHOMODE
 70
     0
  9
$REGENMODE
 70
     1
  9
$FILLMODE
 70
     1
  9
$QTEXTMODE
 70
     0
  9
$MIRRTEXT
 70
     1
  9
$LTSCALE
 40
1.0
  9
$ATTMODE
 70
     1
  9
$TEXTSIZE
 40
3.5
  9
$TRACEWID
 40
1.0
  9
$TEXTSTYLE
  7
Standard
  9
$CLAYER
  8
0
  9
$CELTYPE
  6
ByLayer
  9
$CECOLOR
 62
   256
  9
$CELTSCALE
 40
1.0
  9
$DISPSILH
 70
     0
  9
$DIMSCALE
 40
1.0
  9
$DIMASZ
 40
3.302
  9
$DIMEXO
 40
0.0
  9
$DIMDLI
 40
3.75
  9
$DIMRND
 40
0.0
  9
$DIMDLE
 40
0.0
  9
$DIMEXE
 40
1.0
  9
$DIMTP
 40
0.0
  9
$DIMTM
 40
0.0
  9
$DIMTXT
 40
3.5
  9
$DIMCEN
 40
2.5
  9
$DIMTSZ
 40
0.0
  9
$DIMTOL
 70
     0
  9
$DIMLIM
 70
     0
  9
$DIMTIH
 70
     1
  9
$DIMTOH
 70
     1
  9
$DIMSE1
 70
     0
  9
$DIMSE2
 70
     0
  9
$DIMTAD
 70
     1
  9
$DIMZIN
 70
     1
  9
$DIMBLK
  1

  9
$DIMASO
 70
     1
  9
$DIMSHO
 70
     1
  9
$DIMPOST
  1

  9
$DIMAPOST
  1

  9
$DIMALT
 70
     0
  9
$DIMALTD
 70
     3
  9
$DIMALTF
 40
0.0393700787
  9
$DIMLFAC
 40
1.0
  9
$DIMTOFL
 70
     1
  9
$DIMTVP
 40
0.0
  9
$DIMTIX
 70
     0
  9
$DIMSOXD
 70
     0
  9
$DIMSAH
 70
     0
  9
$DIMBLK1
  1

  9
$DIMBLK2
  1

  9
$DIMSTYLE
  2
ISO-25
  9
$DIMCLRD
 70
     0
  9
$DIMCLRE
 70
     0
  9
$DIMCLRT
 70
     0
  9
$DIMTFAC
 40
1.0
  9
$DIMGAP
 40
1.524
  9
$DIMJUST
 70
     0
  9
$DIMSD1
 70
     0
  9
$DIMSD2
 70
     0
  9
$DIMTOLJ
 70
     0
  9
$DIMTZIN
 70
     1
  9
$DIMALTZ
 70
     0
  9
$DIMALTTZ
 70
     0
  9
$DIMUPT
 70
     0
  9
$DIMDEC
 70
     2
  9
$DIMTDEC
 70
     2
  9
$DIMALTU
 70
     2
  9
$DIMALTTD
 70
     3
  9
$DIMTXSTY
  7
Standard
  9
$DIMAUNIT
 70
     0
  9
$DIMADEC
 70
     2
  9
$DIMALTRND
 40
0.0
  9
$DIMAZIN
 70
     0
  9
$DIMDSEP
 70
    44
  9
$DIMATFIT
 70
     3
  9
$DIMFRAC
 70
     0
  9
$DIMLDRBLK
  1

  9
$DIMLUNIT
 70
     2
  9
$DIMLWD
 70
    -2
  9
$DIMLWE
 70
    -2
  9
$DIMTMOVE
 70
     0
  9
$LUNITS
 70
     2
  9
$LUPREC
 70
     2
  9
$SKETCHINC
 40
1.0
  9
$FILLETRAD
 40
0.0
  9
$AUNITS
 70
     0
  9
$AUPREC
 70
     2
  9
$MENU
  1
.
  9
$ELEVATION
 40
0.0
  9
$PELEVATION
 40
0.0
  9
$THICKNESS
 40
0.0
  9
$LIMCHECK
 70
     0
  9
$CHAMFERA
 40
0.0
  9
$CHAMFERB
 40
0.0
  9
$CHAMFERC
 40
0.0
  9
$CHAMFERD
 40
0.0
  9
$SKPOLY
 70
     0
  9
$TDCREATE
 40
2460822.887859398
  9
$TDUCREATE
 40
2460822.471192732
  9
$TDUPDATE
 40
2460822.887991922
  9
$TDUUPDATE
 40
2460822.471325255
  9
$TDINDWG
 40
0.0000000116
  9
$TDUSRTIMER
 40
0.0000000116
  9
$USRTIMER
 70
     1
  9
$ANGBASE
 50
0.0
  9
$ANGDIR
 70
     0
  9
$PDMODE
 70
     0
  9
$PDSIZE
 40
-1.0
  9
$PLINEWID
 40
0.0
  9
$SPLFRAME
 70
     0
  9
$SPLINETYPE
 70
     6
  9
$SPLINESEGS
 70
     8
  9
$HANDSEED
  5
A8
  9
$SURFTAB1
 70
     6
  9
$SURFTAB2
 70
     6
  9
$SURFTYPE
 70
     6
  9
$SURFU
 70
     6
  9
$SURFV
 70
     6
  9
$UCSBASE
  2

  9
$UCSNAME
  2

  9
$UCSORG
 10
0.0
 20
0.0
 30
0.0
  9
$UCSXDIR
 10
1.0
 20
0.0
 30
0.0
  9
$UCSYDIR
 10
0.0
 20
1.0
 30
0.0
  9
$UCSORTHOREF
  2

  9
$UCSORTHOVIEW
 70
     0
  9
$UCSORGTOP
 10
0.0
 20
0.0
 30
0.0
  9
$UCSORGBOTTOM
 10
0.0
 20
0.0
 30
0.0
  9
$UCSORGLEFT
 10
0.0
 20
0.0
 30
0.0
  9
$UCSORGRIGHT
 10
0.0
 20
0.0
 30
0.0
  9
$UCSORGFRONT
 10
0.0
 20
0.0
 30
0.0
  9
$UCSORGBACK
 10
0.0
 20
0.0
 30
0.0
  9
$PUCSBASE
  2

  9
$PUCSNAME
  2

  9
$PUCSORG
 10
0.0
 20
0.0
 30
0.0
  9
$PUCSXDIR
 10
1.0
 20
0.0
 30
0.0
  9
$PUCSYDIR
 10
0.0
 20
1.0
 30
0.0
  9
$PUCSORTHOREF
  2

  9
$PUCSORTHOVIEW
 70
     0
  9
$PUCSORGTOP
 10
0.0
 20
0.0
 30
0.0
  9
$PUCSORGBOTTOM
 10
0.0
 20
0.0
 30
0.0
  9
$PUCSORGLEFT
 10
0.0
 20
0.0
 30
0.0
  9
$PUCSORGRIGHT
 10
0.0
 20
0.0
 30
0.0
  9
$PUCSORGFRONT
 10
0.0
 20
0.0
 30
0.0
  9
$PUCSORGBACK
 10
0.0
 20
0.0
 30
0.0
  9
$USERI1
 70
     0
  9
$USERI2
 70
     0
  9
$USERI3
 70
     0
  9
$USERI4
 70
     0
  9
$USERI5
 70
     0
  9
$USERR1
 40
0.0
  9
$USERR2
 40
0.0
  9
$USERR3
 40
0.0
  9
$USERR4
 40
0.0
  9
$USERR5
 40
0.0
  9
$WORLDVIEW
 70
     1
  9
$SHADEDGE
 70
     3
  9
$SHADEDIF
 70
    70
  9
$TILEMODE
 70
     1
  9
$MAXACTVP
 70
    64
  9
$PINSBASE
 10
0.0
 20
0.0
 30
0.0
  9
$PLIMCHECK
 70
     0
  9
$PEXTMIN
 10
1.0000000000E+20
 20
1.0000000000E+20
 30
1.0000000000E+20
  9
$PEXTMAX
 10
-1.0000000000E+20
 20
-1.0000000000E+20
 30
-1.0000000000E+20
  9
$PLIMMIN
 10
0.0
 20
0.0
  9
$PLIMMAX
 10
420.0
 20
297.0
  9
$UNITMODE
 70
     0
  9
$VISRETAIN
 70
     1
  9
$PLINEGEN
 70
     0
  9
$PSLTSCALE
 70
     1
  9
$TREEDEPTH
 70
  3020
  9
$CMLSTYLE
  2
Standard
  9
$CMLJUST
 70
     0
  9
$CMLSCALE
 40
20.0
  9
$PROXYGRAPHICS
 70
     1
  9
$MEASUREMENT
 70
     1
  9
$CELWEIGHT
370
    -1
  9
$ENDCAPS
280
     0
  9
$JOINSTYLE
280
     0
  9
$LWDISPLAY
290
     1
  9
$INSUNITS
 70
     4
  9
$HYPERLINKBASE
  1

  9
$STYLESHEET
  1

  9
$XEDIT
290
     1
  9
$CEPSNTYPE
380
     0
  9
$PSTYLEMODE
290
     1
  9
$FINGERPRINTGUID
  2
{5748bc90-c8fa-421f-b428-71cbf50d749e}
  9
$VERSIONGUID
  2
{FAEB1C32-E019-11D5-929B-00C0DF256EC4}
  9
$EXTNAMES
290
     1
  9
$PSVPSCALE
 40
0.0
  9
$OLESTARTUP
290
     0
  0
ENDSEC
  0
SECTION
  2
CLASSES
  0
CLASS
  1
ACDBDICTIONARYWDFLT
  2
AcDbDictionaryWithDefault
  3
ObjectDBX Classes
 90
        0
280
     0
281
     0
  0
CLASS
  1
VISUALSTYLE
  2
AcDbVisualStyle
  3
ObjectDBX Classes
 90
     4095
280
     0
281
     0
  0
CLASS
  1
MATERIAL
  2
AcDbMaterial
  3
ObjectDBX Classes
 90
     1153
280
     0
281
     0
  0
CLASS
  1
SCALE
  2
AcDbScale
  3
ObjectDBX Classes
 90
     1153
280
     0
281
     0
  0
CLASS
  1
TABLESTYLE
  2
AcDbTableStyle
  3
ObjectDBX Classes
 90
     4095
280
     0
281
     0
  0
CLASS
  1
MLEADERSTYLE
  2
AcDbMLeaderStyle
  3
ACDB_MLEADERSTYLE_CLASS
 90
     4095
280
     0
281
     0
  0
CLASS
  1
SUN
  2
AcDbSun
  3
SCENEOE
 90
     1153
280
     0
281
     0
  0
CLASS
  1
ACDBPLACEHOLDER
  2
AcDbPlaceHolder
  3
ObjectDBX Classes
 90
        0
280
     0
281
     0
  0
CLASS
  1
LAYOUT
  2
AcDbLayout
  3
ObjectDBX Classes
 90
        0
280
     0
281
     0
  0
ENDSEC
  0
SECTION
  2
TABLES
  0
TABLE
  2
VPORT
  5
8
330
0
100
AcDbSymbolTable
 70
     1
  0
VPORT
  5
29
330
8
100
AcDbSymbolTableRecord
100
AcDbViewportTableRecord
  2
*Active
 70
     0
 10
0.0
 20
0.0
 11
1.0
 21
1.0
 12
0.0
 22
0.0
 13
0.0
 23
0.0
 14
10.0
 24
10.0
 15
10.0
 25
10.0
 16
0.0
 26
0.0
 36
1.0
 17
0.0
 27
0.0
 37
0.0
 40
122.4
 41
1.0
 42
50.0
 43
0.0
 44
0.0
 50
0.0
 51
0.0
 71
     0
 72
   100
 73
     1
 74
     3
 75
     0
 76
     0
 77
     0
 78
     0
281
     0
 65
     1
110
0.0
120
0.0
130
0.0
111
1.0
121
0.0
131
0.0
112
0.0
122
1.0
132
0.0
 79
     0
146
0.0
  0
ENDTAB
  0
TABLE
  2
LTYPE
  5
5
330
0
100
AcDbSymbolTable
 70
     6
  0
LTYPE
  5
14
330
5
100
AcDbSymbolTableRecord
100
AcDbLinetypeTableRecord
  2
ByBlock
 70
     0
  3

 72
    65
 73
     0
 40
0.0
  0
LTYPE
  5
15
330
5
100
AcDbSymbolTableRecord
100
AcDbLinetypeTableRecord
  2
ByLayer
 70
     0
  3

 72
    65
 73
     0
 40
0.0
  0
LTYPE
  5
16
330
5
100
AcDbSymbolTableRecord
100
AcDbLinetypeTableRecord
  2
Continuous
 70
     0
  3
Solid line
 72
    65
 73
     0
 40
0.0
  0
LTYPE
  5
5E
330
5
100
AcDbSymbolTableRecord
100
AcDbLinetypeTableRecord
  2
HIDDEN
 70
     0
  3
Hidden __ __ __ __ __ __ __ __ __ __ __ __ __ __
 72
    65
 73
     2
 40
1.905
 49
1.27
 74
     0
 49
-0.635
 74
     0
  0
LTYPE
  5
5F
330
5
100
AcDbSymbolTableRecord
100
AcDbLinetypeTableRecord
  2
PHANTOM
 70
     0
  3
Phantom ______  __  __  ______  __  __  ______
 72
    65
 73
     6
 40
12.7
 49
6.35
 74
     0
 49
-1.27
 74
     0
 49
1.27
 74
     0
 49
-1.27
 74
     0
 49
1.27
 74
     0
 49
-1.27
 74
     0
  0
LTYPE
  5
60
330
5
100
AcDbSymbolTableRecord
100
AcDbLinetypeTableRecord
  2
CENTER
 70
     0
  3
Center ____ _ ____ _ ____ _ ____ _ ____ _ ____
 72
    65
 73
     4
 40
10.16
 49
6.35
 74
     0
 49
-1.27
 74
     0
 49
1.27
 74
     0
 49
-1.27
 74
     0
  0
LTYPE
  5
61
330
5
100
AcDbSymbolTableRecord
100
AcDbLinetypeTableRecord
  2
CENTERX2
 70
     0
  3
Center (2x) ________  __  ________  __  _____
 72
    65
 73
     4
 40
20.32
 49
12.7
 74
     0
 49
-2.54
 74
     0
 49
2.54
 74
     0
 49
-2.54
 74
     0
  0
LTYPE
  5
62
330
5
100
AcDbSymbolTableRecord
100
AcDbLinetypeTableRecord
  2
DOT2
 70
     0
  3
Dot (.5x) ........................................
 72
    65
 73
     2
 40
0.635
 49
0.0
 74
     0
 49
-0.635
 74
     0
  0
ENDTAB
  0
TABLE
  2
LAYER
  5
2
330
0
100
AcDbSymbolTable
 70
     1
  0
LAYER
  5
10
330
2
100
AcDbSymbolTableRecord
100
AcDbLayerTableRecord
  2
0
 70
     0
 62
     7
  6
Continuous
370
    -3
390
F
  0
ENDTAB
  0
TABLE
  2
STYLE
  5
3
330
0
100
AcDbSymbolTable
 70
     2
  0
STYLE
  5
11
330
3
100
AcDbSymbolTableRecord
100
AcDbTextStyleTableRecord
  2
Standard
 70
     0
 40
0.0
 41
1.0
 50
0.0
 71
     0
 42
3.5
  3
txt
  4

  0
STYLE
  5
A4
330
3
100
AcDbSymbolTableRecord
100
AcDbTextStyleTableRecord
  2
SLDTEXTSTYLE0
 70
     0
 40
0.0
 41
0.7
 50
0.0
 71
     0
 42
3.5
  3
TXT
  4

  0
ENDTAB
  0
TABLE
  2
VIEW
  5
6
330
0
100
AcDbSymbolTable
 70
     0
  0
ENDTAB
  0
TABLE
  2
UCS
  5
7
330
0
100
AcDbSymbolTable
 70
     0
  0
ENDTAB
  0
TABLE
  2
APPID
  5
9
330
0
100
AcDbSymbolTable
 70
     1
  0
APPID
  5
12
330
9
100
AcDbSymbolTableRecord
100
AcDbRegAppTableRecord
  2
ACAD
 70
     0
  0
ENDTAB
  0
TABLE
  2
DIMSTYLE
  5
A
330
0
100
AcDbSymbolTable
 70
     1
100
AcDbDimStyleTable
  0
DIMSTYLE
105
27
330
A
100
AcDbSymbolTableRecord
100
AcDbDimStyleTableRecord
  2
ISO-25
 70
     0
 41
2.5
 42
0.625
 43
3.75
 44
1.25
 73
     0
 74
     0
 77
     1
 78
     8
140
2.5
141
2.5
143
0.0393700787
147
0.625
171
     3
172
     1
178
     0
271
     2
272
     2
274
     3
278
    44
283
     0
284
     8
340
11
  0
ENDTAB
  0
TABLE
  2
BLOCK_RECORD
  5
1
330
0
100
AcDbSymbolTable
 70
     1
  0
BLOCK_RECORD
  5
1F
330
1
100
AcDbSymbolTableRecord
100
AcDbBlockTableRecord
  2
*Model_Space
340
22
  0
BLOCK_RECORD
  5
1B
330
1
100
AcDbSymbolTableRecord
100
AcDbBlockTableRecord
  2
*Paper_Space
340
1E
  0
BLOCK_RECORD
  5
23
330
1
100
AcDbSymbolTableRecord
100
AcDbBlockTableRecord
  2
*Paper_Space0
340
26
  0
ENDTAB
  0
ENDSEC
  0
SECTION
  2
BLOCKS
  0
BLOCK
  5
20
330
1F
100
AcDbEntity
  8
0
100
AcDbBlockBegin
  2
*Model_Space
 70
     0
 10
0.0
 20
0.0
 30
0.0
  3
*Model_Space
  1

  0
ENDBLK
  5
21
330
1F
100
AcDbEntity
  8
0
100
AcDbBlockEnd
  0
BLOCK
  5
1C
330
1B
100
AcDbEntity
 67
     1
  8
0
100
AcDbBlockBegin
  2
*Paper_Space
 70
     0
 10
0.0
 20
0.0
 30
0.0
  3
*Paper_Space
  1

  0
ENDBLK
  5
1D
330
1B
100
AcDbEntity
 67
     1
  8
0
100
AcDbBlockEnd
  0
BLOCK
  5
24
330
23
100
AcDbEntity
  8
0
100
AcDbBlockBegin
  2
*Paper_Space0
 70
     0
 10
0.0
 20
0.0
 30
0.0
  3
*Paper_Space0
  1

  0
ENDBLK
  5
25
330
23
100
AcDbEntity
  8
0
100
AcDbBlockEnd
  0
ENDSEC
  0
SECTION
  2
ENTITIES
  0
SPLINE
  5
63
330
1F
100
AcDbEntity
  8
0
  6
Continuous
 62
     7
370
    25
100
AcDbSpline
210
0.0
220
0.0
230
1.0
 70
     8
 71
     3
 72
    27
 73
    23
 74
     0
 42
0.00000001
 43
0.00000001
 40
0.0
 40
0.0
 40
0.0
 40
0.0
 40
0.0000006218481167
 40
0.0000013338004781
 40
0.0000032373172767
 40
0.0000087026894791
 40
0.0000249073238003
 40
0.0000729746916433
 40
0.0002110009856284
 40
0.0005729489637823
 40
0.0013065505169947
 40
0.002363818372413
 40
0.003889554030138
 40
0.0078407606032179
 40
0.0156444830745822
 40
0.031296676450987
 40
0.0626009426203837
 40
0.1252165640653173
 40
0.2504451187639147
 40
0.3754675044658229
 40
0.4453420422279801
 40
0.4995139698233307
 40
0.4995139698233307
 40
0.4995139698233307
 40
0.4995139698233307
 10
-40.5132984959828
 20
44.25689375651437
 30
0.0
 10
-40.51333100980892
 20
44.25689241790916
 30
0.0
 10
-40.51335990024923
 20
44.25686889362949
 30
0.0
 10
-40.5134255969051
 20
44.25679401811404
 30
0.0
 10
-40.51358691986523
 20
44.25655785531445
 30
0.0
 10
-40.5140097734535
 20
44.25582281659424
 30
0.0
 10
-40.51516302121986
 20
44.25358739605612
 30
0.0
 10
-40.51831195149483
 20
44.24708701616755
 30
0.0
 10
-40.5263841055453
 20
44.22995245607994
 30
0.0
 10
-40.5429676118428
 20
44.1953296856249
 30
0.0
 10
-40.56866690290145
 20
44.14633361335591
 30
0.0
 10
-40.60955711964567
 20
44.07775725149936
 30
0.0
 10
-40.71340508054011
 20
43.89896072895848
 30
0.0
 10
-40.88040977350514
 20
43.52630123298889
 30
0.0
 10
-41.06199402948184
 20
42.7276020343237
 30
0.0
 10
-41.22888689335991
 20
41.09797044840198
 30
0.0
 10
-41.2742813676414
 20
37.82160360937416
 30
0.0
 10
-40.83817181103301
 20
31.2829090915936
 30
0.0
 10
-39.67977885741151
 20
24.84384422592337
 30
0.0
 10
-37.9881193594582
 20
21.60215011771811
 30
0.0
 10
-35.78191285700984
 20
19.82201846276806
 30
0.0
 10
-35.35644751042126
 20
19.77895546209467
 30
0.0
 10
-35.10230814753029
 20
19.84949357851601
 30
0.0
  0
SPLINE
  5
64
330
1F
100
AcDbEntity
  8
0
  6
Continuous
 62
     7
370
    25
100
AcDbSpline
210
0.0
220
0.0
230
1.0
 70
     8
 71
     3
 72
    27
 73
    23
 74
     0
 42
0.00000001
 43
0.00000001
 40
0.4995139698233307
 40
0.4995139698233307
 40
0.4995139698233307
 40
0.4995139698233307
 40
0.5082622433973089
 40
0.5151158864862914
 40
0.518943693941709
 40
0.5228580787217049
 40
0.5306858577015402
 40
0.6245245051628068
 40
0.8122199398158244
 40
0.9060906369521964
 40
0.9530411174136026
 40
0.9765371015873582
 40
0.9882018854694392
 40
0.9942551300637728
 40
0.9972043752647656
 40
0.9988121529533702
 40
0.9996762761063428
 40
0.9999301024750727
 40
0.999985958242338
 40
0.9999971123315298
 40
0.9999992734435682
 40
1.0
 40
1.0
 40
1.0
 40
1.0
 10
-35.10230814753029
 20
19.84949357851601
 30
0.0
 10
-35.06126696728895
 20
19.86088483497927
 30
0.0
 10
-34.98489463881836
 20
19.88535576154035
 30
0.0
 10
-34.90719386335434
 20
20.06998095424667
 30
0.0
 10
-34.923656447338
 20
20.27415838911068
 30
0.0
 10
-35.001549282954
 20
20.67631259073379
 30
0.0
 10
-36.66369624773419
 20
25.29703710100436
 30
0.0
 10
-39.92720975877133
 20
34.56113102028131
 30
0.0
 10
-40.81037872140227
 20
39.39334734553234
 30
0.0
 10
-40.92441833022129
 20
41.84762135035506
 30
0.0
 10
-40.83143181005578
 20
43.07364673093711
 30
0.0
 10
-40.70943449355967
 20
43.67175039448593
 30
0.0
 10
-40.6157281129098
 20
43.97433967747333
 30
0.0
 10
-40.56552801311282
 20
44.1202814462795
 30
0.0
 10
-40.53571999672597
 20
44.19895927708451
 30
0.0
 10
-40.51909021593196
 20
44.24101002110078
 30
0.0
 10
-40.51434512590225
 20
44.25341629484144
 30
0.0
 10
-40.51340730190173
 20
44.25618469564803
 30
0.0
 10
-40.51327308503157
 20
44.25675274922117
 30
0.0
 10
-40.51327268461306
 20
44.25686583966181
 30
0.0
 10
-40.51329849598287
 20
44.25689375651455
 30
0.0
 10
-40.51328879909639
 20
44.25688489178825
 30
0.0
 10
-40.51329849598282
 20
44.25689375651437
 30
0.0
  0
SPLINE
  5
65
330
1F
100
AcDbEntity
  8
0
  6
Continuous
 62
     7
370
    25
100
AcDbSpline
210
0.0
220
0.0
230
1.0
 70
     8
 71
     3
 72
    27
 73
    23
 74
     0
 42
0.00000001
 43
0.00000001
 40
0.4995139698233307
 40
0.4995139698233307
 40
0.4995139698233307
 40
0.4995139698233307
 40
0.5082622433973089
 40
0.5151158864862914
 40
0.518943693941709
 40
0.5228580787217049
 40
0.5306858577015402
 40
0.6245245051628068
 40
0.8122199398158244
 40
0.9060906369521964
 40
0.9530411174136026
 40
0.9765371015873582
 40
0.9882018854694392
 40
0.9942551300637728
 40
0.9972043752647656
 40
0.9988121529533702
 40
0.9996762761063428
 40
0.9999301024750727
 40
0.999985958242338
 40
0.9999971123315298
 40
0.9999992734435682
 40
1.0
 40
1.0
 40
1.0
 40
1.0
 10
-24.83423170807209
 20
31.77161261373911
 30
0.0
 10
-24.79195535653469
 20
31.76643098271203
 30
0.0
 10
-24.71203190724095
 20
31.75981274610656
 30
0.0
 10
-24.56959274868356
 20
31.90064938338188
 30
0.0
 10
-24.50666687149305
 20
32.09558469459786
 30
0.0
 10
-24.42473271783077
 20
32.49693502808105
 30
0.0
 10
-24.1920815630131
 20
37.40200393407057
 30
0.0
 10
-23.66195964115289
 20
47.20980324532634
 30
0.0
 10
-22.62869224019915
 20
52.0121631348706
 30
0.0
 10
-21.79484110055267
 20
54.32325772402925
 30
0.0
 10
-21.23975315696444
 20
55.42037307878775
 30
0.0
 10
-20.8981579703554
 20
55.92626246004446
 30
0.0
 10
-20.69578865779675
 20
56.16995862597218
 30
0.0
 10
-20.59356031605213
 20
56.28558049261532
 30
0.0
 10
-20.53591259746405
 20
56.34686229613554
 30
0.0
 10
-20.50445656030467
 20
56.3793481762653
 30
0.0
 10
-20.49532499332837
 20
56.38899421130959
 30
0.0
 10
-20.49339913580635
 20
56.39119299044511
 30
0.0
 10
-20.49305775089596
 20
56.39166644094215
 30
0.0
 10
-20.4930141031195
 20
56.39177076965206
 30
0.0
 10
-20.49302726639874
 20
56.39180643904451
 30
0.0
 10
-20.4930217000277
 20
56.39179453826752
 30
0.0
 10
-20.49302726639876
 20
56.39180643904431
 30
0.0
  0
SPLINE
  5
66
330
1F
100
AcDbEntity
  8
0
  6
Continuous
 62
     7
370
    25
100
AcDbSpline
210
0.0
220
0.0
230
1.0
 70
     8
 71
     3
 72
    27
 73
    23
 74
     0
 42
0.00000001
 43
0.00000001
 40
0.0
 40
0.0
 40
0.0
 40
0.0
 40
0.0000006218481167
 40
0.0000013338004781
 40
0.0000032373172767
 40
0.0000087026894791
 40
0.0000249073238003
 40
0.0000729746916433
 40
0.0002110009856284
 40
0.0005729489637823
 40
0.0013065505169947
 40
0.002363818372413
 40
0.003889554030138
 40
0.0078407606032179
 40
0.0156444830745822
 40
0.031296676450987
 40
0.0626009426203837
 40
0.1252165640653173
 40
0.2504451187639147
 40
0.3754675044658229
 40
0.4453420422279801
 40
0.4995139698233307
 40
0.4995139698233307
 40
0.4995139698233307
 40
0.4995139698233307
 10
-20.49302726639876
 20
56.3918064390443
 30
0.0
 10
-20.49305781751927
 20
56.39181764483693
 30
0.0
 10
-20.49309351115784
 20
56.3918069671293
 30
0.0
 10
-20.49318286057281
 20
56.39176293219484
 30
0.0
 10
-20.49342227914454
 20
56.39160648184206
 30
0.0
 10
-20.49409423206037
 20
56.3910892136754
 30
0.0
 10
-20.49601515247192
 20
56.38946528320728
 30
0.0
 10
-20.50141197238971
 20
56.38466475872059
 30
0.0
 10
-20.51542678256661
 20
56.37192356897567
 30
0.0
 10
-20.54399750524786
 20
56.34628253310399
 30
0.0
 10
-20.5864905393653
 20
56.31085075767291
 30
0.0
 10
-20.65051121122962
 20
56.26314246903338
 30
0.0
 10
-20.81487668373391
 20
56.13769691549286
 30
0.0
 10
-21.11177951641872
 20
55.85731436369553
 30
0.0
 10
-21.58519044471431
 20
55.18890180775622
 30
0.0
 10
-22.36301235456454
 20
53.74718567397533
 30
0.0
 10
-23.65876268788866
 20
50.73758912362728
 30
0.0
 10
-25.75810005585666
 20
44.52973118729594
 30
0.0
 10
-27.1520079594166
 20
38.13751315787127
 30
0.0
 10
-26.82966100128489
 20
34.49520825756823
 30
0.0
 10
-25.47261886095757
 20
32.00630237952131
 30
0.0
 10
-25.0960196323572
 20
31.80369881540573
 30
0.0
 10
-24.83423170807209
 20
31.77161261373911
 30
0.0
  0
SPLINE
  5
67
330
1F
100
AcDbEntity
  8
0
  6
Continuous
 62
     7
370
    25
100
AcDbSpline
210
0.0
220
0.0
230
1.0
 70
     8
 71
     3
 72
    27
 73
    23
 74
     0
 42
0.00000001
 43
0.00000001
 40
0.4995139698233307
 40
0.4995139698233307
 40
0.4995139698233307
 40
0.4995139698233307
 40
0.5082622433973089
 40
0.5151158864862914
 40
0.518943693941709
 40
0.5228580787217049
 40
0.5306858577015402
 40
0.6245245051628068
 40
0.8122199398158244
 40
0.9060906369521964
 40
0.9530411174136026
 40
0.9765371015873582
 40
0.9882018854694392
 40
0.9942551300637728
 40
0.9972043752647656
 40
0.9988121529533702
 40
0.9996762761063428
 40
0.9999301024750727
 40
0.999985958242338
 40
0.9999971123315298
 40
0.9999992734435682
 40
1.0
 40
1.0
 40
1.0
 40
1.0
 10
31.77161261373886
 20
24.83423170807242
 30
0.0
 10
31.76643098271179
 20
24.79195535653502
 30
0.0
 10
31.75981274610631
 20
24.71203190724128
 30
0.0
 10
31.90064938338163
 20
24.56959274868389
 30
0.0
 10
32.09558469459761
 20
24.50666687149338
 30
0.0
 10
32.49693502808081
 20
24.42473271783111
 30
0.0
 10
37.40200393407032
 20
24.19208156301349
 30
0.0
 10
47.2098032453261
 20
23.66195964115338
 30
0.0
 10
52.01216313487037
 20
22.6286922401997
 30
0.0
 10
54.32325772402903
 20
21.79484110055323
 30
0.0
 10
55.42037307878753
 20
21.23975315696502
 30
0.0
 10
55.92626246004425
 20
20.89815797035598
 30
0.0
 10
56.16995862597197
 20
20.69578865779734
 30
0.0
 10
56.28558049261511
 20
20.59356031605272
 30
0.0
 10
56.34686229613533
 20
20.53591259746464
 30
0.0
 10
56.3793481762651
 20
20.50445656030526
 30
0.0
 10
56.38899421130938
 20
20.49532499332895
 30
0.0
 10
56.39119299044491
 20
20.49339913580694
 30
0.0
 10
56.39166644094193
 20
20.49305775089654
 30
0.0
 10
56.39177076965185
 20
20.49301410312009
 30
0.0
 10
56.3918064390443
 20
20.49302726639933
 30
0.0
 10
56.39179453826731
 20
20.49302170002828
 30
0.0
 10
56.3918064390441
 20
20.49302726639935
 30
0.0
  0
SPLINE
  5
68
330
1F
100
AcDbEntity
  8
0
  6
Continuous
 62
     7
370
    25
100
AcDbSpline
210
0.0
220
0.0
230
1.0
 70
     8
 71
     3
 72
    27
 73
    23
 74
     0
 42
0.00000001
 43
0.00000001
 40
0.0
 40
0.0
 40
0.0
 40
0.0
 40
0.0000006218481167
 40
0.0000013338004781
 40
0.0000032373172767
 40
0.0000087026894791
 40
0.0000249073238003
 40
0.0000729746916433
 40
0.0002110009856284
 40
0.0005729489637823
 40
0.0013065505169947
 40
0.002363818372413
 40
0.003889554030138
 40
0.0078407606032179
 40
0.0156444830745822
 40
0.031296676450987
 40
0.0626009426203837
 40
0.1252165640653173
 40
0.2504451187639147
 40
0.3754675044658229
 40
0.4453420422279801
 40
0.4995139698233307
 40
0.4995139698233307
 40
0.4995139698233307
 40
0.4995139698233307
 10
56.3918064390441
 20
20.49302726639934
 30
0.0
 10
56.39181764483672
 20
20.49305781751985
 30
0.0
 10
56.39180696712909
 20
20.49309351115843
 30
0.0
 10
56.39176293219464
 20
20.4931828605734
 30
0.0
 10
56.39160648184185
 20
20.49342227914513
 30
0.0
 10
56.39108921367519
 20
20.49409423206095
 30
0.0
 10
56.38946528320707
 20
20.49601515247251
 30
0.0
 10
56.38466475872038
 20
20.5014119723903
 30
0.0
 10
56.37192356897547
 20
20.5154267825672
 30
0.0
 10
56.34628253310378
 20
20.54399750524845
 30
0.0
 10
56.3108507576727
 20
20.58649053936589
 30
0.0
 10
56.26314246903318
 20
20.65051121123021
 30
0.0
 10
56.13769691549265
 20
20.81487668373449
 30
0.0
 10
55.85731436369532
 20
21.1117795164193
 30
0.0
 10
55.188901807756
 20
21.58519044471489
 30
0.0
 10
53.7471856739751
 20
22.3630123545651
 30
0.0
 10
50.73758912362704
 20
23.65876268788919
 30
0.0
 10
44.52973118729568
 20
25.75810005585712
 30
0.0
 10
38.13751315787099
 20
27.15200795941699
 30
0.0
 10
34.49520825756795
 20
26.82966100128525
 30
0.0
 10
32.00630237952105
 20
25.4726188609579
 30
0.0
 10
31.80369881540547
 20
25.09601963235753
 30
0.0
 10
31.77161261373886
 20
24.83423170807242
 30
0.0
  0
SPLINE
  5
69
330
1F
100
AcDbEntity
  8
0
  6
Continuous
 62
     7
370
    25
100
AcDbSpline
210
0.0
220
0.0
230
1.0
 70
     8
 71
     3
 72
    27
 73
    23
 74
     0
 42
0.00000001
 43
0.00000001
 40
0.4995139698233307
 40
0.4995139698233307
 40
0.4995139698233307
 40
0.4995139698233307
 40
0.5082622433973089
 40
0.5151158864862914
 40
0.518943693941709
 40
0.5228580787217049
 40
0.5306858577015402
 40
0.6245245051628068
 40
0.8122199398158244
 40
0.9060906369521964
 40
0.9530411174136026
 40
0.9765371015873582
 40
0.9882018854694392
 40
0.9942551300637728
 40
0.9972043752647656
 40
0.9988121529533702
 40
0.9996762761063428
 40
0.9999301024750727
 40
0.999985958242338
 40
0.9999971123315298
 40
0.9999992734435682
 40
1.0
 40
1.0
 40
1.0
 40
1.0
 10
38.85679163890588
 20
10.78536861393132
 30
0.0
 10
38.83582597674074
 20
10.74829328238336
 30
0.0
 10
38.79912614349742
 20
10.67698633291355
 30
0.0
 10
38.87473312400387
 20
10.49149386193898
 30
0.0
 10
39.03074917753219
 20
10.35875941795205
 30
0.0
 10
39.37019369285248
 20
10.12947200717162
 30
0.0
 10
43.81285471818443
 20
8.037441762089166
 30
0.0
 10
52.67121088420253
 20
3.794390664367729
 30
0.0
 10
56.71259857835773
 20
1.001992495032245
 30
0.0
 10
58.52867055077753
 20
-0.6528031159479565
 30
0.0
 10
59.32985001232596
 20
-1.585485375432311
 30
0.0
 10
59.66650803889291
 20
-2.094673661561151
 30
0.0
 10
59.81421055560969
 20
-2.374897012673894
 30
0.0
 10
59.88191013900822
 20
-2.513590258037771
 30
0.0
 10
59.91646631617862
 20
-2.590301336249909
 30
0.0
 10
59.93444165165737
 20
-2.631794733266832
 30
0.0
 10
59.93985892661131
 20
-2.643922578895463
 30
0.0
 10
59.94115333988437
 20
-2.646543275589178
 30
0.0
 10
59.94146010875896
 20
-2.647039855781859
 30
0.0
 10
59.9415397926378
 20
-2.647120105937966
 30
0.0
 10
59.94157778422829
 20
-2.647121594739229
 30
0.0
 10
59.94156465918604
 20
-2.647122183165325
 30
0.0
 10
59.94157778422812
 20
-2.647121594739139
 30
0.0
  0
SPLINE
  5
6A
330
1F
100
AcDbEntity
  8
0
  6
Continuous
 62
     7
370
    25
100
AcDbSpline
210
0.0
220
0.0
230
1.0
 70
     8
 71
     3
 72
    27
 73
    23
 74
     0
 42
0.00000001
 43
0.00000001
 40
0.0
 40
0.0
 40
0.0
 40
0.0
 40
0.0000006218481167
 40
0.0000013338004781
 40
0.0000032373172767
 40
0.0000087026894791
 40
0.0000249073238003
 40
0.0000729746916433
 40
0.0002110009856284
 40
0.0005729489637823
 40
0.0013065505169947
 40
0.002363818372413
 40
0.003889554030138
 40
0.0078407606032179
 40
0.0156444830745822
 40
0.031296676450987
 40
0.0626009426203837
 40
0.1252165640653173
 40
0.2504451187639147
 40
0.3754675044658229
 40
0.4453420422279801
 40
0.4995139698233307
 40
0.4995139698233307
 40
0.4995139698233307
 40
0.4995139698233307
 10
59.94157778422812
 20
-2.647121594739142
 30
0.0
 10
59.94159982843823
 20
-2.64709765745539
 30
0.0
 10
59.94160362288682
 20
-2.64706059465146
 30
0.0
 10
59.94159713245296
 20
-2.646961195115871
 30
0.0
 10
59.94154421269497
 20
-2.646680130239748
 30
0.0
 10
59.94132346447119
 20
-2.645861376736537
 30
0.0
 10
59.94055825276586
 20
-2.643465226399254
 30
0.0
 10
59.93818842001728
 20
-2.636642133748837
 30
0.0
 10
59.93178033125456
 20
-2.618818295250368
 30
0.0
 10
59.91902464524113
 20
-2.582609989719337
 30
0.0
 10
59.90255133326749
 20
-2.529792391787175
 30
0.0
 10
59.88297427231365
 20
-2.452387831745267
 30
0.0
 10
59.82997763613326
 20
-2.252528000843194
 30
0.0
 10
59.68455773034516
 20
-1.870927793283985
 30
0.0
 10
59.24819156959856
 20
-1.177762715021742
 30
0.0
 10
58.21387910013734
 20
0.0925719059991122
 30
0.0
 10
55.92923663119886
 20
2.441411856123246
 30
0.0
 10
50.99730537275082
 20
6.756591064935081
 30
0.0
 10
45.62509142895085
 20
10.49058998316603
 30
0.0
 10
42.13668364004501
 20
11.58662996714899
 30
0.0
 10
39.31791689684591
 20
11.28534955318989
 30
0.0
 10
38.98661732531884
 20
11.01495026125161
 30
0.0
 10
38.85679163890588
 20
10.78536861393132
 30
0.0
  0
SPLINE
  5
6B
330
1F
100
AcDbEntity
  8
0
  6
Continuous
 62
     7
370
    25
100
AcDbSpline
210
0.0
220
0.0
230
1.0
 70
     8
 71
     3
 72
    27
 73
    23
 74
     0
 42
0.00000001
 43
0.00000001
 40
0.0
 40
0.0
 40
0.0
 40
0.0
 40
0.0000006218481167
 40
0.0000013338004781
 40
0.0000032373172767
 40
0.0000087026894791
 40
0.0000249073238003
 40
0.0000729746916433
 40
0.0002110009856284
 40
0.0005729489637823
 40
0.0013065505169947
 40
0.002363818372413
 40
0.003889554030138
 40
0.0078407606032179
 40
0.0156444830745822
 40
0.031296676450987
 40
0.0626009426203837
 40
0.1252165640653173
 40
0.2504451187639147
 40
0.3754675044658229
 40
0.4453420422279801
 40
0.4995139698233307
 40
0.4995139698233307
 40
0.4995139698233307
 40
0.4995139698233307
 10
-44.2568937565142
 20
-40.51329849598297
 30
0.0
 10
-44.25689241790899
 20
-40.51333100980909
 30
0.0
 10
-44.25686889362934
 20
-40.5133599002494
 30
0.0
 10
-44.25679401811389
 20
-40.51342559690528
 30
0.0
 10
-44.25655785531429
 20
-40.5135869198654
 30
0.0
 10
-44.25582281659408
 20
-40.51400977345367
 30
0.0
 10
-44.25358739605596
 20
-40.51516302122003
 30
0.0
 10
-44.24708701616739
 20
-40.51831195149501
 30
0.0
 10
-44.22995245607978
 20
-40.52638410554548
 30
0.0
 10
-44.19532968562473
 20
-40.54296761184296
 30
0.0
 10
-44.14633361335575
 20
-40.56866690290162
 30
0.0
 10
-44.0777572514992
 20
-40.60955711964586
 30
0.0
 10
-43.89896072895831
 20
-40.71340508054028
 30
0.0
 10
-43.52630123298872
 20
-40.88040977350531
 30
0.0
 10
-42.72760203432354
 20
-41.06199402948199
 30
0.0
 10
-41.09797044840181
 20
-41.22888689336006
 30
0.0
 10
-37.82160360937399
 20
-41.27428136764155
 30
0.0
 10
-31.28290909159344
 20
-40.83817181103312
 30
0.0
 10
-24.84384422592321
 20
-39.6797788574116
 30
0.0
 10
-21.60215011771796
 20
-37.98811935945827
 30
0.0
 10
-19.82201846276792
 20
-35.78191285700991
 30
0.0
 10
-19.77895546209453
 20
-35.35644751042133
 30
0.0
 10
-19.84949357851587
 20
-35.10230814753037
 30
0.0
  0
SPLINE
  5
6C
330
1F
100
AcDbEntity
  8
0
  6
Continuous
 62
     7
370
    25
100
AcDbSpline
210
0.0
220
0.0
230
1.0
 70
     8
 71
     3
 72
    27
 73
    23
 74
     0
 42
0.00000001
 43
0.00000001
 40
0.4995139698233307
 40
0.4995139698233307
 40
0.4995139698233307
 40
0.4995139698233307
 40
0.5082622433973089
 40
0.5151158864862914
 40
0.518943693941709
 40
0.5228580787217049
 40
0.5306858577015402
 40
0.6245245051628068
 40
0.8122199398158244
 40
0.9060906369521964
 40
0.9530411174136026
 40
0.9765371015873582
 40
0.9882018854694392
 40
0.9942551300637728
 40
0.9972043752647656
 40
0.9988121529533702
 40
0.9996762761063428
 40
0.9999301024750727
 40
0.999985958242338
 40
0.9999971123315298
 40
0.9999992734435682
 40
1.0
 40
1.0
 40
1.0
 40
1.0
 10
-19.84949357851588
 20
-35.10230814753037
 30
0.0
 10
-19.86088483497914
 20
-35.06126696728902
 30
0.0
 10
-19.88535576154021
 20
-34.98489463881844
 30
0.0
 10
-20.06998095424653
 20
-34.90719386335442
 30
0.0
 10
-20.27415838911054
 20
-34.92365644733808
 30
0.0
 10
-20.67631259073365
 20
-35.00154928295408
 30
0.0
 10
-25.29703710100421
 20
-36.66369624773429
 30
0.0
 10
-34.56113102028115
 20
-39.92720975877145
 30
0.0
 10
-39.39334734553218
 20
-40.81037872140242
 30
0.0
 10
-41.84762135035488
 20
-40.92441833022144
 30
0.0
 10
-43.07364673093696
 20
-40.83143181005594
 30
0.0
 10
-43.67175039448576
 20
-40.70943449355984
 30
0.0
 10
-43.97433967747317
 20
-40.61572811290996
 30
0.0
 10
-44.12028144627934
 20
-40.565528013113
 30
0.0
 10
-44.19895927708435
 20
-40.53571999672613
 30
0.0
 10
-44.24101002110061
 20
-40.51909021593213
 30
0.0
 10
-44.25341629484127
 20
-40.51434512590242
 30
0.0
 10
-44.25618469564787
 20
-40.5134073019019
 30
0.0
 10
-44.256752749221
 20
-40.51327308503173
 30
0.0
 10
-44.25686583966166
 20
-40.51327268461323
 30
0.0
 10
-44.25689375651439
 20
-40.51329849598304
 30
0.0
 10
-44.25688489178809
 20
-40.51328879909658
 30
0.0
 10
-44.2568937565142
 20
-40.51329849598298
 30
0.0
  0
SPLINE
  5
6D
330
1F
100
AcDbEntity
  8
0
  6
Continuous
 62
     7
370
    25
100
AcDbSpline
210
0.0
220
0.0
230
1.0
 70
     8
 71
     3
 72
    27
 73
    23
 74
     0
 42
0.00000001
 43
0.00000001
 40
0.0
 40
0.0
 40
0.0
 40
0.0
 40
0.0000006218481167
 40
0.0000013338004781
 40
0.0000032373172767
 40
0.0000087026894791
 40
0.0000249073238003
 40
0.0000729746916433
 40
0.0002110009856284
 40
0.0005729489637823
 40
0.0013065505169947
 40
0.002363818372413
 40
0.003889554030138
 40
0.0078407606032179
 40
0.0156444830745822
 40
0.031296676450987
 40
0.0626009426203837
 40
0.1252165640653173
 40
0.2504451187639147
 40
0.3754675044658229
 40
0.4453420422279801
 40
0.4995139698233307
 40
0.4995139698233307
 40
0.4995139698233307
 40
0.4995139698233307
 10
40.51329849598312
 20
-44.25689375651407
 30
0.0
 10
40.51333100980924
 20
-44.25689241790885
 30
0.0
 10
40.51335990024955
 20
-44.25686889362919
 30
0.0
 10
40.51342559690543
 20
-44.25679401811374
 30
0.0
 10
40.51358691986555
 20
-44.25655785531414
 30
0.0
 10
40.51400977345383
 20
-44.25582281659393
 30
0.0
 10
40.51516302122018
 20
-44.25358739605582
 30
0.0
 10
40.51831195149516
 20
-44.24708701616725
 30
0.0
 10
40.52638410554562
 20
-44.22995245607964
 30
0.0
 10
40.54296761184311
 20
-44.19532968562459
 30
0.0
 10
40.56866690290176
 20
-44.14633361335562
 30
0.0
 10
40.609557119646
 20
-44.07775725149905
 30
0.0
 10
40.71340508054043
 20
-43.89896072895817
 30
0.0
 10
40.88040977350546
 20
-43.52630123298859
 30
0.0
 10
41.06199402948214
 20
-42.7276020343234
 30
0.0
 10
41.22888689336019
 20
-41.09797044840168
 30
0.0
 10
41.27428136764167
 20
-37.82160360937385
 30
0.0
 10
40.83817181103323
 20
-31.2829090915933
 30
0.0
 10
39.67977885741168
 20
-24.84384422592306
 30
0.0
 10
37.98811935945835
 20
-21.60215011771783
 30
0.0
 10
35.78191285700997
 20
-19.82201846276779
 30
0.0
 10
35.35644751042139
 20
-19.7789554620944
 30
0.0
 10
35.10230814753043
 20
-19.84949357851574
 30
0.0
  0
SPLINE
  5
6E
330
1F
100
AcDbEntity
  8
0
  6
Continuous
 62
     7
370
    25
100
AcDbSpline
210
0.0
220
0.0
230
1.0
 70
     8
 71
     3
 72
    27
 73
    23
 74
     0
 42
0.00000001
 43
0.00000001
 40
0.4995139698233307
 40
0.4995139698233307
 40
0.4995139698233307
 40
0.4995139698233307
 40
0.5082622433973089
 40
0.5151158864862914
 40
0.518943693941709
 40
0.5228580787217049
 40
0.5306858577015402
 40
0.6245245051628068
 40
0.8122199398158244
 40
0.9060906369521964
 40
0.9530411174136026
 40
0.9765371015873582
 40
0.9882018854694392
 40
0.9942551300637728
 40
0.9972043752647656
 40
0.9988121529533702
 40
0.9996762761063428
 40
0.9999301024750727
 40
0.999985958242338
 40
0.9999971123315298
 40
0.9999992734435682
 40
1.0
 40
1.0
 40
1.0
 40
1.0
 10
35.10230814753043
 20
-19.84949357851575
 30
0.0
 10
35.06126696728909
 20
-19.86088483497901
 30
0.0
 10
34.9848946388185
 20
-19.88535576154008
 30
0.0
 10
34.90719386335448
 20
-20.0699809542464
 30
0.0
 10
34.92365644733813
 20
-20.27415838911042
 30
0.0
 10
35.00154928295414
 20
-20.67631259073353
 30
0.0
 10
36.66369624773437
 20
-25.29703710100409
 30
0.0
 10
39.92720975877157
 20
-34.56113102028101
 30
0.0
 10
40.81037872140255
 20
-39.39334734553203
 30
0.0
 10
40.92441833022158
 20
-41.84762135035475
 30
0.0
 10
40.83143181005608
 20
-43.0736467309368
 30
0.0
 10
40.70943449355998
 20
-43.67175039448563
 30
0.0
 10
40.61572811291011
 20
-43.97433967747303
 30
0.0
 10
40.56552801311314
 20
-44.12028144627919
 30
0.0
 10
40.53571999672628
 20
-44.19895927708421
 30
0.0
 10
40.51909021593228
 20
-44.24101002110046
 30
0.0
 10
40.51434512590257
 20
-44.25341629484113
 30
0.0
 10
40.51340730190206
 20
-44.25618469564773
 30
0.0
 10
40.51327308503188
 20
-44.25675274922087
 30
0.0
 10
40.51327268461338
 20
-44.25686583966151
 30
0.0
 10
40.51329849598318
 20
-44.25689375651424
 30
0.0
 10
40.51328879909672
 20
-44.25688489178795
 30
0.0
 10
40.51329849598313
 20
-44.25689375651407
 30
0.0
  0
SPLINE
  5
6F
330
1F
100
AcDbEntity
  8
0
  6
Continuous
 62
     7
370
    25
100
AcDbSpline
210
0.0
220
0.0
230
1.0
 70
     8
 71
     3
 72
    27
 73
    23
 74
     0
 42
0.00000001
 43
0.00000001
 40
0.4995139698233307
 40
0.4995139698233307
 40
0.4995139698233307
 40
0.4995139698233307
 40
0.5082622433973089
 40
0.5151158864862914
 40
0.518943693941709
 40
0.5228580787217049
 40
0.5306858577015402
 40
0.6245245051628068
 40
0.8122199398158244
 40
0.9060906369521964
 40
0.9530411174136026
 40
0.9765371015873582
 40
0.9882018854694392
 40
0.9942551300637728
 40
0.9972043752647656
 40
0.9988121529533702
 40
0.9996762761063428
 40
0.9999301024750727
 40
0.999985958242338
 40
0.9999971123315298
 40
0.9999992734435682
 40
1.0
 40
1.0
 40
1.0
 40
1.0
 10
40.02637637474278
 20
-4.905469082070887
 30
0.0
 10
39.99281851345
 20
-4.93169901048995
 30
0.0
 10
39.93162430049534
 20
-4.98353362347815
 30
0.0
 10
39.9304911468298
 20
-5.18383985965747
 30
0.0
 10
40.02383591280981
 20
-5.366175254584524
 30
0.0
 10
40.24969725958189
 20
-5.707908992687346
 30
0.0
 10
43.55359553597194
 20
-9.34082568752224
 30
0.0
 10
50.11390413167471
 20
-16.65083989483089
 30
0.0
 10
52.77905498927637
 20
-20.77725152441928
 30
0.0
 10
53.82362384988985
 20
-23.00106397572105
 30
0.0
 10
54.20689510791735
 20
-24.1693481318808
 30
0.0
 10
54.32306864706231
 20
-24.76861021676962
 30
0.0
 10
54.35229114532468
 20
-25.08402614146055
 30
0.0
 10
54.36176179760442
 20
-25.23806950109444
 30
0.0
 10
54.36433148370335
 20
-25.32216537266049
 30
0.0
 10
54.36505969265126
 20
-25.36737913597771
 30
0.0
 10
54.36542347651083
 20
-25.3806569057009
 30
0.0
 10
54.36561646123449
 20
-25.38357346425137
 30
0.0
 10
54.36570984570635
 20
-25.38414963989351
 30
0.0
 10
54.36575275360589
 20
-25.38425427507049
 30
0.0
 10
54.36578728351918
 20
-25.38427018929575
 30
0.0
 10
54.36577493238035
 20
-25.38426571019435
 30
0.0
 10
54.36578728351905
 20
-25.3842701892956
 30
0.0
  0
SPLINE
  5
70
330
1F
100
AcDbEntity
  8
0
  6
Continuous
 62
     7
370
    25
100
AcDbSpline
210
0.0
220
0.0
230
1.0
 70
     8
 71
     3
 72
    27
 73
    23
 74
     0
 42
0.00000001
 43
0.00000001
 40
0.0
 40
0.0
 40
0.0
 40
0.0
 40
0.0000006218481167
 40
0.0000013338004781
 40
0.0000032373172767
 40
0.0000087026894791
 40
0.0000249073238003
 40
0.0000729746916433
 40
0.0002110009856284
 40
0.0005729489637823
 40
0.0013065505169947
 40
0.002363818372413
 40
0.003889554030138
 40
0.0078407606032179
 40
0.0156444830745822
 40
0.031296676450987
 40
0.0626009426203837
 40
0.1252165640653173
 40
0.2504451187639147
 40
0.3754675044658229
 40
0.4453420422279801
 40
0.4995139698233307
 40
0.4995139698233307
 40
0.4995139698233307
 40
0.4995139698233307
 10
54.36578728351905
 20
-25.3842701892956
 30
0.0
 10
54.36581681011548
 20
-25.38425651008307
 30
0.0
 10
54.3658344990499
 20
-25.38422372058971
 30
0.0
 10
54.36586654122636
 20
-25.38412940361173
 30
0.0
 10
54.36592520861659
 20
-25.38384948201074
 30
0.0
 10
54.36603458725167
 20
-25.38300857571899
 30
0.0
 10
54.36624459085461
 20
-25.38050198762368
 30
0.0
 10
54.36666623539755
 20
-25.37329137624517
 30
0.0
 10
54.36756682104166
 20
-25.35437202726303
 30
0.0
 10
54.36963842245145
 20
-25.3160385251702
 30
0.0
 10
54.37463148635229
 20
-25.26093736391578
 30
0.0
 10
54.38616608314786
 20
-25.18193305828858
 30
0.0
 10
54.41368662177036
 20
-24.97700571650967
 30
0.0
 10
54.42536822441301
 20
-24.56880330646246
 30
0.0
 10
54.2874812511637
 20
-23.76141217784191
 30
0.0
 10
53.81803714343175
 20
-22.19196177608883
 30
0.0
 10
52.60616486146318
 20
-19.14762179928387
 30
0.0
 10
49.701002106929
 20
-13.2735476669728
 30
0.0
 10
46.16666312245663
 20
-7.767925220586971
 30
0.0
 10
43.36323090831354
 20
-5.420360446423512
 30
0.0
 10
40.64373498443015
 20
-4.620011922102856
 30
0.0
 10
40.23417676201851
 20
-4.743045436357108
 30
0.0
 10
40.02637637474278
 20
-4.905469082070877
 30
0.0
  0
SPLINE
  5
71
330
1F
100
AcDbEntity
  8
0
  6
Continuous
 62
     7
370
    25
100
AcDbSpline
210
0.0
220
0.0
230
1.0
 70
     8
 71
     3
 72
    27
 73
    23
 74
     0
 42
0.00000001
 43
0.00000001
 40
0.0
 40
0.0
 40
0.0
 40
0.0
 40
0.0000006218481167
 40
0.0000013338004781
 40
0.0000032373172767
 40
0.0000087026894791
 40
0.0000249073238003
 40
0.0000729746916433
 40
0.0002110009856284
 40
0.0005729489637823
 40
0.0013065505169947
 40
0.002363818372413
 40
0.003889554030138
 40
0.0078407606032179
 40
0.0156444830745822
 40
0.031296676450987
 40
0.0626009426203837
 40
0.1252165640653173
 40
0.2504451187639147
 40
0.3754675044658229
 40
0.4453420422279801
 40
0.4995139698233307
 40
0.4995139698233307
 40
0.4995139698233307
 40
0.4995139698233307
 10
2.647121594739728
 20
59.94157778422807
 30
0.0
 10
2.647097657455983
 20
59.94159982843819
 30
0.0
 10
2.647060594652053
 20
59.94160362288677
 30
0.0
 10
2.646961195116461
 20
59.94159713245291
 30
0.0
 10
2.646680130240341
 20
59.94154421269492
 30
0.0
 10
2.64586137673713
 20
59.94132346447114
 30
0.0
 10
2.643465226399848
 20
59.94055825276581
 30
0.0
 10
2.63664213374943
 20
59.93818842001724
 30
0.0
 10
2.618818295250961
 20
59.93178033125452
 30
0.0
 10
2.582609989719927
 20
59.91902464524109
 30
0.0
 10
2.529792391787765
 20
59.90255133326744
 30
0.0
 10
2.452387831745857
 20
59.8829742723136
 30
0.0
 10
2.252528000843784
 20
59.82997763613322
 30
0.0
 10
1.870927793284571
 20
59.68455773034513
 30
0.0
 10
1.177762715022328
 20
59.24819156959854
 30
0.0
 10
-0.0925719059985362
 20
58.21387910013732
 30
0.0
 10
-2.441411856122695
 20
55.92923663119887
 30
0.0
 10
-6.756591064934582
 20
50.99730537275089
 30
0.0
 10
-10.49058998316558
 20
45.62509142895095
 30
0.0
 10
-11.58662996714857
 20
42.13668364004511
 30
0.0
 10
-11.2853495531895
 20
39.31791689684601
 30
0.0
 10
-11.01495026125123
 20
38.98661732531895
 30
0.0
 10
-10.78536861393094
 20
38.85679163890597
 30
0.0
  0
SPLINE
  5
72
330
1F
100
AcDbEntity
  8
0
  6
Continuous
 62
     7
370
    25
100
AcDbSpline
210
0.0
220
0.0
230
1.0
 70
     8
 71
     3
 72
    27
 73
    23
 74
     0
 42
0.00000001
 43
0.00000001
 40
0.4995139698233307
 40
0.4995139698233307
 40
0.4995139698233307
 40
0.4995139698233307
 40
0.5082622433973089
 40
0.5151158864862914
 40
0.518943693941709
 40
0.5228580787217049
 40
0.5306858577015402
 40
0.6245245051628068
 40
0.8122199398158244
 40
0.9060906369521964
 40
0.9530411174136026
 40
0.9765371015873582
 40
0.9882018854694392
 40
0.9942551300637728
 40
0.9972043752647656
 40
0.9988121529533702
 40
0.9996762761063428
 40
0.9999301024750727
 40
0.999985958242338
 40
0.9999971123315298
 40
0.9999992734435682
 40
1.0
 40
1.0
 40
1.0
 40
1.0
 10
-10.78536861393094
 20
38.85679163890598
 30
0.0
 10
-10.74829328238298
 20
38.83582597674082
 30
0.0
 10
-10.67698633291317
 20
38.79912614349752
 30
0.0
 10
-10.49149386193859
 20
38.87473312400397
 30
0.0
 10
-10.35875941795167
 20
39.03074917753228
 30
0.0
 10
-10.12947200717123
 20
39.37019369285257
 30
0.0
 10
-8.037441762088733
 20
43.81285471818449
 30
0.0
 10
-3.794390664367212
 20
52.67121088420254
 30
0.0
 10
-1.001992495031686
 20
56.71259857835772
 30
0.0
 10
0.6528031159485325
 20
58.52867055077751
 30
0.0
 10
1.585485375432901
 20
59.32985001232593
 30
0.0
 10
2.094673661561741
 20
59.66650803889287
 30
0.0
 10
2.374897012674484
 20
59.81421055560966
 30
0.0
 10
2.513590258038361
 20
59.88191013900818
 30
0.0
 10
2.590301336250503
 20
59.91646631617858
 30
0.0
 10
2.631794733267426
 20
59.93444165165734
 30
0.0
 10
2.643922578896049
 20
59.93985892661127
 30
0.0
 10
2.646543275589767
 20
59.94115333988432
 30
0.0
 10
2.647039855782449
 20
59.94146010875891
 30
0.0
 10
2.647120105938559
 20
59.94153979263775
 30
0.0
 10
2.647121594739822
 20
59.94157778422826
 30
0.0
 10
2.647122183165918
 20
59.94156465918599
 30
0.0
 10
2.647121594739728
 20
59.94157778422807
 30
0.0
  0
SPLINE
  5
73
330
1F
100
AcDbEntity
  8
0
  6
Continuous
 62
     7
370
    25
100
AcDbSpline
210
0.0
220
0.0
230
1.0
 70
     8
 71
     3
 72
    27
 73
    23
 74
     0
 42
0.00000001
 43
0.00000001
 40
0.0
 40
0.0
 40
0.0
 40
0.0
 40
0.0000006218481167
 40
0.0000013338004781
 40
0.0000032373172767
 40
0.0000087026894791
 40
0.0000249073238003
 40
0.0000729746916433
 40
0.0002110009856284
 40
0.0005729489637823
 40
0.0013065505169947
 40
0.002363818372413
 40
0.003889554030138
 40
0.0078407606032179
 40
0.0156444830745822
 40
0.031296676450987
 40
0.0626009426203837
 40
0.1252165640653173
 40
0.2504451187639147
 40
0.3754675044658229
 40
0.4453420422279801
 40
0.4995139698233307
 40
0.4995139698233307
 40
0.4995139698233307
 40
0.4995139698233307
 10
-59.94157778422808
 20
2.647121594739558
 30
0.0
 10
-59.94159982843819
 20
2.647097657455809
 30
0.0
 10
-59.94160362288678
 20
2.647060594651879
 30
0.0
 10
-59.94159713245293
 20
2.646961195116288
 30
0.0
 10
-59.94154421269494
 20
2.646680130240168
 30
0.0
 10
-59.94132346447115
 20
2.645861376736957
 30
0.0
 10
-59.94055825276583
 20
2.643465226399675
 30
0.0
 10
-59.93818842001725
 20
2.636642133749256
 30
0.0
 10
-59.93178033125453
 20
2.618818295250787
 30
0.0
 10
-59.9190246452411
 20
2.582609989719754
 30
0.0
 10
-59.90255133326745
 20
2.529792391787591
 30
0.0
 10
-59.88297427231362
 20
2.452387831745683
 30
0.0
 10
-59.82997763613324
 20
2.25252800084361
 30
0.0
 10
-59.68455773034513
 20
1.870927793284401
 30
0.0
 10
-59.24819156959854
 20
1.177762715022158
 30
0.0
 10
-58.21387910013733
 20
-0.0925719059987028
 30
0.0
 10
-55.92923663119886
 20
-2.441411856122857
 30
0.0
 10
-50.99730537275087
 20
-6.756591064934724
 30
0.0
 10
-45.62509142895092
 20
-10.49058998316571
 30
0.0
 10
-42.13668364004508
 20
-11.58662996714869
 30
0.0
 10
-39.31791689684598
 20
-11.28534955318961
 30
0.0
 10
-38.98661732531891
 20
-11.01495026125134
 30
0.0
 10
-38.85679163890595
 20
-10.78536861393105
 30
0.0
  0
SPLINE
  5
74
330
1F
100
AcDbEntity
  8
0
  6
Continuous
 62
     7
370
    25
100
AcDbSpline
210
0.0
220
0.0
230
1.0
 70
     8
 71
     3
 72
    27
 73
    23
 74
     0
 42
0.00000001
 43
0.00000001
 40
0.4995139698233307
 40
0.4995139698233307
 40
0.4995139698233307
 40
0.4995139698233307
 40
0.5082622433973089
 40
0.5151158864862914
 40
0.518943693941709
 40
0.5228580787217049
 40
0.5306858577015402
 40
0.6245245051628068
 40
0.8122199398158244
 40
0.9060906369521964
 40
0.9530411174136026
 40
0.9765371015873582
 40
0.9882018854694392
 40
0.9942551300637728
 40
0.9972043752647656
 40
0.9988121529533702
 40
0.9996762761063428
 40
0.9999301024750727
 40
0.999985958242338
 40
0.9999971123315298
 40
0.9999992734435682
 40
1.0
 40
1.0
 40
1.0
 40
1.0
 10
-38.85679163890595
 20
-10.78536861393104
 30
0.0
 10
-38.8358259767408
 20
-10.74829328238308
 30
0.0
 10
-38.7991261434975
 20
-10.67698633291328
 30
0.0
 10
-38.87473312400394
 20
-10.4914938619387
 30
0.0
 10
-39.03074917753226
 20
-10.35875941795178
 30
0.0
 10
-39.37019369285255
 20
-10.12947200717134
 30
0.0
 10
-43.81285471818447
 20
-8.037441762088854
 30
0.0
 10
-52.67121088420254
 20
-3.794390664367361
 30
0.0
 10
-56.71259857835772
 20
-1.001992495031849
 30
0.0
 10
-58.52867055077752
 20
0.6528031159483659
 30
0.0
 10
-59.32985001232594
 20
1.585485375432728
 30
0.0
 10
-59.66650803889288
 20
2.094673661561568
 30
0.0
 10
-59.81421055560966
 20
2.37489701267431
 30
0.0
 10
-59.88191013900819
 20
2.513590258038191
 30
0.0
 10
-59.91646631617859
 20
2.59030133625033
 30
0.0
 10
-59.93444165165734
 20
2.631794733267252
 30
0.0
 10
-59.93985892661127
 20
2.643922578895879
 30
0.0
 10
-59.94115333988434
 20
2.646543275589598
 30
0.0
 10
-59.94146010875892
 20
2.647039855782279
 30
0.0
 10
-59.94153979263776
 20
2.647120105938386
 30
0.0
 10
-59.94157778422826
 20
2.647121594739645
 30
0.0
 10
-59.941564659186
 20
2.647122183165745
 30
0.0
 10
-59.94157778422809
 20
2.647121594739558
 30
0.0
  0
SPLINE
  5
75
330
1F
100
AcDbEntity
  8
0
  6
Continuous
 62
     7
370
    25
100
AcDbSpline
210
0.0
220
0.0
230
1.0
 70
     8
 71
     3
 72
    27
 73
    23
 74
     0
 42
0.00000001
 43
0.00000001
 40
0.4995139698233307
 40
0.4995139698233307
 40
0.4995139698233307
 40
0.4995139698233307
 40
0.5082622433973089
 40
0.5151158864862914
 40
0.518943693941709
 40
0.5228580787217049
 40
0.5306858577015402
 40
0.6245245051628068
 40
0.8122199398158244
 40
0.9060906369521964
 40
0.9530411174136026
 40
0.9765371015873582
 40
0.9882018854694392
 40
0.9942551300637728
 40
0.9972043752647656
 40
0.9988121529533702
 40
0.9996762761063428
 40
0.9999301024750727
 40
0.999985958242338
 40
0.9999971123315298
 40
0.9999992734435682
 40
1.0
 40
1.0
 40
1.0
 40
1.0
 10
10.78536861393119
 20
-38.85679163890592
 30
0.0
 10
10.74829328238323
 20
-38.83582597674077
 30
0.0
 10
10.67698633291342
 20
-38.79912614349747
 30
0.0
 10
10.49149386193885
 20
-38.87473312400391
 30
0.0
 10
10.35875941795192
 20
-39.03074917753223
 30
0.0
 10
10.12947200717149
 20
-39.37019369285252
 30
0.0
 10
8.037441762089019
 20
-43.81285471818445
 30
0.0
 10
3.794390664367556
 20
-52.67121088420254
 30
0.0
 10
1.001992495032054
 20
-56.71259857835773
 30
0.0
 10
-0.6528031159481508
 20
-58.52867055077754
 30
0.0
 10
-1.585485375432512
 20
-59.32985001232596
 30
0.0
 10
-2.094673661561353
 20
-59.66650803889289
 30
0.0
 10
-2.374897012674095
 20
-59.81421055560968
 30
0.0
 10
-2.513590258037976
 20
-59.88191013900821
 30
0.0
 10
-2.590301336250111
 20
-59.91646631617861
 30
0.0
 10
-2.631794733267037
 20
-59.93444165165737
 30
0.0
 10
-2.643922578895664
 20
-59.9398589266113
 30
0.0
 10
-2.646543275589379
 20
-59.94115333988435
 30
0.0
 10
-2.647039855782057
 20
-59.94146010875895
 30
0.0
 10
-2.647120105938171
 20
-59.94153979263778
 30
0.0
 10
-2.64712159473943
 20
-59.94157778422829
 30
0.0
 10
-2.647122183165526
 20
-59.94156465918603
 30
0.0
 10
-2.647121594739343
 20
-59.94157778422812
 30
0.0
  0
SPLINE
  5
76
330
1F
100
AcDbEntity
  8
0
  6
Continuous
 62
     7
370
    25
100
AcDbSpline
210
0.0
220
0.0
230
1.0
 70
     8
 71
     3
 72
    27
 73
    23
 74
     0
 42
0.00000001
 43
0.00000001
 40
0.0
 40
0.0
 40
0.0
 40
0.0
 40
0.0000006218481167
 40
0.0000013338004781
 40
0.0000032373172767
 40
0.0000087026894791
 40
0.0000249073238003
 40
0.0000729746916433
 40
0.0002110009856284
 40
0.0005729489637823
 40
0.0013065505169947
 40
0.002363818372413
 40
0.003889554030138
 40
0.0078407606032179
 40
0.0156444830745822
 40
0.031296676450987
 40
0.0626009426203837
 40
0.1252165640653173
 40
0.2504451187639147
 40
0.3754675044658229
 40
0.4453420422279801
 40
0.4995139698233307
 40
0.4995139698233307
 40
0.4995139698233307
 40
0.4995139698233307
 10
-2.647121594739343
 20
-59.94157778422811
 30
0.0
 10
-2.647097657455594
 20
-59.94159982843822
 30
0.0
 10
-2.647060594651661
 20
-59.9416036228868
 30
0.0
 10
-2.646961195116072
 20
-59.94159713245295
 30
0.0
 10
-2.646680130239953
 20
-59.94154421269496
 30
0.0
 10
-2.645861376736738
 20
-59.94132346447118
 30
0.0
 10
-2.643465226399456
 20
-59.94055825276585
 30
0.0
 10
-2.636642133749041
 20
-59.93818842001728
 30
0.0
 10
-2.618818295250569
 20
-59.93178033125456
 30
0.0
 10
-2.582609989719538
 20
-59.91902464524112
 30
0.0
 10
-2.529792391787376
 20
-59.90255133326748
 30
0.0
 10
-2.452387831745468
 20
-59.88297427231364
 30
0.0
 10
-2.252528000843395
 20
-59.82997763613326
 30
0.0
 10
-1.870927793284186
 20
-59.68455773034515
 30
0.0
 10
-1.17776271502194
 20
-59.24819156959856
 30
0.0
 10
0.0925719059989144
 20
-58.21387910013734
 30
0.0
 10
2.441411856123059
 20
-55.92923663119887
 30
0.0
 10
6.756591064934911
 20
-50.99730537275085
 30
0.0
 10
10.49058998316588
 20
-45.6250914289509
 30
0.0
 10
11.58662996714885
 20
-42.13668364004504
 30
0.0
 10
11.28534955318975
 20
-39.31791689684594
 30
0.0
 10
11.01495026125148
 20
-38.98661732531888
 30
0.0
 10
10.7853686139312
 20
-38.85679163890592
 30
0.0
  0
SPLINE
  5
77
330
1F
100
AcDbEntity
  8
0
  6
Continuous
 62
     7
370
    25
100
AcDbSpline
210
0.0
220
0.0
230
1.0
 70
     8
 71
     3
 72
    27
 73
    23
 74
     0
 42
0.00000001
 43
0.00000001
 40
0.0
 40
0.0
 40
0.0
 40
0.0
 40
0.0000006218481167
 40
0.0000013338004781
 40
0.0000032373172767
 40
0.0000087026894791
 40
0.0000249073238003
 40
0.0000729746916433
 40
0.0002110009856284
 40
0.0005729489637823
 40
0.0013065505169947
 40
0.002363818372413
 40
0.003889554030138
 40
0.0078407606032179
 40
0.0156444830745822
 40
0.031296676450987
 40
0.0626009426203837
 40
0.1252165640653173
 40
0.2504451187639147
 40
0.3754675044658229
 40
0.4453420422279801
 40
0.4995139698233307
 40
0.4995139698233307
 40
0.4995139698233307
 40
0.4995139698233307
 10
25.38427018929616
 20
54.36578728351878
 30
0.0
 10
25.38425651008363
 20
54.36581681011521
 30
0.0
 10
25.38422372059027
 20
54.36583449904963
 30
0.0
 10
25.38412940361229
 20
54.36586654122609
 30
0.0
 10
25.38384948201131
 20
54.36592520861632
 30
0.0
 10
25.38300857571956
 20
54.36603458725141
 30
0.0
 10
25.38050198762424
 20
54.36624459085435
 30
0.0
 10
25.37329137624573
 20
54.36666623539727
 30
0.0
 10
25.35437202726359
 20
54.36756682104139
 30
0.0
 10
25.31603852517077
 20
54.36963842245118
 30
0.0
 10
25.26093736391633
 20
54.37463148635202
 30
0.0
 10
25.18193305828914
 20
54.38616608314759
 30
0.0
 10
24.97700571651023
 20
54.4136866217701
 30
0.0
 10
24.56880330646302
 20
54.42536822441274
 30
0.0
 10
23.76141217784247
 20
54.28748125116345
 30
0.0
 10
22.19196177608938
 20
53.8180371434315
 30
0.0
 10
19.14762179928442
 20
52.60616486146298
 30
0.0
 10
13.27354766697331
 20
49.70100210692886
 30
0.0
 10
7.767925220587446
 20
46.16666312245653
 30
0.0
 10
5.42036044642396
 20
43.36323090831348
 30
0.0
 10
4.620011922103276
 20
40.6437349844301
 30
0.0
 10
4.743045436357525
 20
40.23417676201846
 30
0.0
 10
4.90546908207129
 20
40.02637637474272
 30
0.0
  0
SPLINE
  5
78
330
1F
100
AcDbEntity
  8
0
  6
Continuous
 62
     7
370
    25
100
AcDbSpline
210
0.0
220
0.0
230
1.0
 70
     8
 71
     3
 72
    27
 73
    23
 74
     0
 42
0.00000001
 43
0.00000001
 40
0.4995139698233307
 40
0.4995139698233307
 40
0.4995139698233307
 40
0.4995139698233307
 40
0.5082622433973089
 40
0.5151158864862914
 40
0.518943693941709
 40
0.5228580787217049
 40
0.5306858577015402
 40
0.6245245051628068
 40
0.8122199398158244
 40
0.9060906369521964
 40
0.9530411174136026
 40
0.9765371015873582
 40
0.9882018854694392
 40
0.9942551300637728
 40
0.9972043752647656
 40
0.9988121529533702
 40
0.9996762761063428
 40
0.9999301024750727
 40
0.999985958242338
 40
0.9999971123315298
 40
0.9999992734435682
 40
1.0
 40
1.0
 40
1.0
 40
1.0
 10
4.9054690820713
 20
40.02637637474272
 30
0.0
 10
4.931699010490363
 20
39.99281851344995
 30
0.0
 10
4.983533623478563
 20
39.93162430049529
 30
0.0
 10
5.183839859657886
 20
39.93049114682974
 30
0.0
 10
5.366175254584941
 20
40.02383591280975
 30
0.0
 10
5.707908992687766
 20
40.24969725958183
 30
0.0
 10
9.340825687522692
 20
43.55359553597183
 30
0.0
 10
16.65083989483141
 20
50.11390413167452
 30
0.0
 10
20.77725152441982
 20
52.77905498927615
 30
0.0
 10
23.00106397572161
 20
53.82362384988961
 30
0.0
 10
24.16934813188135
 20
54.2068951079171
 30
0.0
 10
24.76861021677018
 20
54.32306864706204
 30
0.0
 10
25.08402614146111
 20
54.35229114532441
 30
0.0
 10
25.238069501095
 20
54.36176179760415
 30
0.0
 10
25.32216537266106
 20
54.36433148370308
 30
0.0
 10
25.36737913597828
 20
54.36505969265099
 30
0.0
 10
25.38065690570146
 20
54.36542347651056
 30
0.0
 10
25.38357346425194
 20
54.36561646123421
 30
0.0
 10
25.38414963989407
 20
54.36570984570607
 30
0.0
 10
25.38425427507104
 20
54.36575275360561
 30
0.0
 10
25.38427018929631
 20
54.36578728351891
 30
0.0
 10
25.38426571019492
 20
54.36577493238009
 30
0.0
 10
25.38427018929616
 20
54.36578728351879
 30
0.0
  0
SPLINE
  5
79
330
1F
100
AcDbEntity
  8
0
  6
Continuous
 62
     7
370
    25
100
AcDbSpline
210
0.0
220
0.0
230
1.0
 70
     8
 71
     3
 72
    27
 73
    23
 74
     0
 42
0.00000001
 43
0.00000001
 40
0.4995139698233307
 40
0.4995139698233307
 40
0.4995139698233307
 40
0.4995139698233307
 40
0.5082622433973089
 40
0.5151158864862914
 40
0.518943693941709
 40
0.5228580787217049
 40
0.5306858577015402
 40
0.6245245051628068
 40
0.8122199398158244
 40
0.9060906369521964
 40
0.9530411174136026
 40
0.9765371015873582
 40
0.9882018854694392
 40
0.9942551300637728
 40
0.9972043752647656
 40
0.9988121529533702
 40
0.9996762761063428
 40
0.9999301024750727
 40
0.999985958242338
 40
0.9999971123315298
 40
0.9999992734435682
 40
1.0
 40
1.0
 40
1.0
 40
1.0
 10
-31.77161261373905
 20
-24.8342317080722
 30
0.0
 10
-31.76643098271197
 20
-24.7919553565348
 30
0.0
 10
-31.75981274610649
 20
-24.71203190724105
 30
0.0
 10
-31.90064938338181
 20
-24.56959274868367
 30
0.0
 10
-32.0955846945978
 20
-24.50666687149315
 30
0.0
 10
-32.49693502808099
 20
-24.42473271783088
 30
0.0
 10
-37.40200393407051
 20
-24.19208156301323
 30
0.0
 10
-47.20980324532628
 20
-23.66195964115305
 30
0.0
 10
-52.01216313487055
 20
-22.62869224019933
 30
0.0
 10
-54.32325772402919
 20
-21.79484110055285
 30
0.0
 10
-55.42037307878769
 20
-21.23975315696463
 30
0.0
 10
-55.92626246004441
 20
-20.89815797035559
 30
0.0
 10
-56.16995862597213
 20
-20.69578865779695
 30
0.0
 10
-56.28558049261527
 20
-20.59356031605233
 30
0.0
 10
-56.34686229613549
 20
-20.53591259746424
 30
0.0
 10
-56.37934817626525
 20
-20.50445656030487
 30
0.0
 10
-56.38899421130954
 20
-20.49532499332856
 30
0.0
 10
-56.39119299044506
 20
-20.49339913580655
 30
0.0
 10
-56.3916664409421
 20
-20.49305775089615
 30
0.0
 10
-56.39177076965201
 20
-20.4930141031197
 30
0.0
 10
-56.39180643904446
 20
-20.49302726639894
 30
0.0
 10
-56.39179453826747
 20
-20.49302170002789
 30
0.0
 10
-56.39180643904426
 20
-20.49302726639895
 30
0.0
  0
SPLINE
  5
7A
330
1F
100
AcDbEntity
  8
0
  6
Continuous
 62
     7
370
    25
100
AcDbSpline
210
0.0
220
0.0
230
1.0
 70
     8
 71
     3
 72
    27
 73
    23
 74
     0
 42
0.00000001
 43
0.00000001
 40
0.0
 40
0.0
 40
0.0
 40
0.0
 40
0.0000006218481167
 40
0.0000013338004781
 40
0.0000032373172767
 40
0.0000087026894791
 40
0.0000249073238003
 40
0.0000729746916433
 40
0.0002110009856284
 40
0.0005729489637823
 40
0.0013065505169947
 40
0.002363818372413
 40
0.003889554030138
 40
0.0078407606032179
 40
0.0156444830745822
 40
0.031296676450987
 40
0.0626009426203837
 40
0.1252165640653173
 40
0.2504451187639147
 40
0.3754675044658229
 40
0.4453420422279801
 40
0.4995139698233307
 40
0.4995139698233307
 40
0.4995139698233307
 40
0.4995139698233307
 10
-56.39180643904425
 20
-20.49302726639895
 30
0.0
 10
-56.39181764483688
 20
-20.49305781751946
 30
0.0
 10
-56.39180696712925
 20
-20.49309351115804
 30
0.0
 10
-56.3917629321948
 20
-20.49318286057301
 30
0.0
 10
-56.39160648184201
 20
-20.49342227914473
 30
0.0
 10
-56.39108921367535
 20
-20.49409423206056
 30
0.0
 10
-56.38946528320723
 20
-20.49601515247211
 30
0.0
 10
-56.38466475872054
 20
-20.50141197238991
 30
0.0
 10
-56.37192356897562
 20
-20.51542678256681
 30
0.0
 10
-56.34628253310394
 20
-20.54399750524806
 30
0.0
 10
-56.31085075767286
 20
-20.5864905393655
 30
0.0
 10
-56.26314246903333
 20
-20.65051121122982
 30
0.0
 10
-56.13769691549282
 20
-20.8148766837341
 30
0.0
 10
-55.85731436369547
 20
-21.11177951641891
 30
0.0
 10
-55.18890180775617
 20
-21.5851904447145
 30
0.0
 10
-53.74718567397527
 20
-22.36301235456473
 30
0.0
 10
-50.73758912362722
 20
-23.65876268788884
 30
0.0
 10
-44.52973118729587
 20
-25.7581000558568
 30
0.0
 10
-38.13751315787119
 20
-27.15200795941673
 30
0.0
 10
-34.49520825756815
 20
-26.82966100128501
 30
0.0
 10
-32.00630237952125
 20
-25.47261886095768
 30
0.0
 10
-31.80369881540566
 20
-25.09601963235731
 30
0.0
 10
-31.77161261373904
 20
-24.8342317080722
 30
0.0
  0
SPLINE
  5
7B
330
1F
100
AcDbEntity
  8
0
  6
Continuous
 62
     7
370
    25
100
AcDbSpline
210
0.0
220
0.0
230
1.0
 70
     8
 71
     3
 72
    27
 73
    23
 74
     0
 42
0.00000001
 43
0.00000001
 40
0.4995139698233307
 40
0.4995139698233307
 40
0.4995139698233307
 40
0.4995139698233307
 40
0.5082622433973089
 40
0.5151158864862914
 40
0.518943693941709
 40
0.5228580787217049
 40
0.5306858577015402
 40
0.6245245051628068
 40
0.8122199398158244
 40
0.9060906369521964
 40
0.9530411174136026
 40
0.9765371015873582
 40
0.9882018854694392
 40
0.9942551300637728
 40
0.9972043752647656
 40
0.9988121529533702
 40
0.9996762761063428
 40
0.9999301024750727
 40
0.999985958242338
 40
0.9999971123315298
 40
0.9999992734435682
 40
1.0
 40
1.0
 40
1.0
 40
1.0
 10
24.8342317080723
 20
-31.77161261373894
 30
0.0
 10
24.7919553565349
 20
-31.76643098271187
 30
0.0
 10
24.71203190724115
 20
-31.75981274610638
 30
0.0
 10
24.56959274868377
 20
-31.9006493833817
 30
0.0
 10
24.50666687149326
 20
-32.0955846945977
 30
0.0
 10
24.42473271783098
 20
-32.49693502808089
 30
0.0
 10
24.19208156301335
 20
-37.40200393407041
 30
0.0
 10
23.66195964115321
 20
-47.20980324532619
 30
0.0
 10
22.62869224019951
 20
-52.01216313487045
 30
0.0
 10
21.79484110055303
 20
-54.3232577240291
 30
0.0
 10
21.23975315696482
 20
-55.42037307878761
 30
0.0
 10
20.89815797035578
 20
-55.92626246004433
 30
0.0
 10
20.69578865779713
 20
-56.16995862597203
 30
0.0
 10
20.59356031605251
 20
-56.28558049261517
 30
0.0
 10
20.53591259746443
 20
-56.34686229613539
 30
0.0
 10
20.50445656030506
 20
-56.37934817626517
 30
0.0
 10
20.49532499332875
 20
-56.38899421130944
 30
0.0
 10
20.49339913580674
 20
-56.39119299044497
 30
0.0
 10
20.49305775089634
 20
-56.391666440942
 30
0.0
 10
20.49301410311988
 20
-56.39177076965192
 30
0.0
 10
20.49302726639912
 20
-56.39180643904436
 30
0.0
 10
20.49302170002808
 20
-56.39179453826737
 30
0.0
 10
20.49302726639914
 20
-56.39180643904417
 30
0.0
  0
SPLINE
  5
7C
330
1F
100
AcDbEntity
  8
0
  6
Continuous
 62
     7
370
    25
100
AcDbSpline
210
0.0
220
0.0
230
1.0
 70
     8
 71
     3
 72
    27
 73
    23
 74
     0
 42
0.00000001
 43
0.00000001
 40
0.0
 40
0.0
 40
0.0
 40
0.0
 40
0.0000006218481167
 40
0.0000013338004781
 40
0.0000032373172767
 40
0.0000087026894791
 40
0.0000249073238003
 40
0.0000729746916433
 40
0.0002110009856284
 40
0.0005729489637823
 40
0.0013065505169947
 40
0.002363818372413
 40
0.003889554030138
 40
0.0078407606032179
 40
0.0156444830745822
 40
0.031296676450987
 40
0.0626009426203837
 40
0.1252165640653173
 40
0.2504451187639147
 40
0.3754675044658229
 40
0.4453420422279801
 40
0.4995139698233307
 40
0.4995139698233307
 40
0.4995139698233307
 40
0.4995139698233307
 10
20.49302726639914
 20
-56.39180643904417
 30
0.0
 10
20.49305781751965
 20
-56.39181764483679
 30
0.0
 10
20.49309351115823
 20
-56.39180696712916
 30
0.0
 10
20.4931828605732
 20
-56.39176293219471
 30
0.0
 10
20.49342227914492
 20
-56.39160648184193
 30
0.0
 10
20.49409423206075
 20
-56.39108921367527
 30
0.0
 10
20.4960151524723
 20
-56.38946528320714
 30
0.0
 10
20.50141197239009
 20
-56.38466475872045
 30
0.0
 10
20.515426782567
 20
-56.37192356897554
 30
0.0
 10
20.54399750524824
 20
-56.34628253310385
 30
0.0
 10
20.58649053936568
 20
-56.31085075767277
 30
0.0
 10
20.65051121123
 20
-56.26314246903325
 30
0.0
 10
20.81487668373429
 20
-56.13769691549273
 30
0.0
 10
21.1117795164191
 20
-55.85731436369539
 30
0.0
 10
21.58519044471469
 20
-55.18890180775607
 30
0.0
 10
22.36301235456491
 20
-53.74718567397517
 30
0.0
 10
23.65876268788901
 20
-50.73758912362712
 30
0.0
 10
25.75810005585695
 20
-44.52973118729577
 30
0.0
 10
27.15200795941686
 20
-38.13751315787109
 30
0.0
 10
26.82966100128512
 20
-34.49520825756805
 30
0.0
 10
25.47261886095779
 20
-32.00630237952114
 30
0.0
 10
25.09601963235741
 20
-31.80369881540555
 30
0.0
 10
24.83423170807231
 20
-31.77161261373894
 30
0.0
  0
SPLINE
  5
7D
330
1F
100
AcDbEntity
  8
0
  6
Continuous
 62
     7
370
    25
100
AcDbSpline
210
0.0
220
0.0
230
1.0
 70
     8
 71
     3
 72
    27
 73
    23
 74
     0
 42
0.00000001
 43
0.00000001
 40
0.0
 40
0.0
 40
0.0
 40
0.0
 40
0.0000006218481167
 40
0.0000013338004781
 40
0.0000032373172767
 40
0.0000087026894791
 40
0.0000249073238003
 40
0.0000729746916433
 40
0.0002110009856284
 40
0.0005729489637823
 40
0.0013065505169947
 40
0.002363818372413
 40
0.003889554030138
 40
0.0078407606032179
 40
0.0156444830745822
 40
0.031296676450987
 40
0.0626009426203837
 40
0.1252165640653173
 40
0.2504451187639147
 40
0.3754675044658229
 40
0.4453420422279801
 40
0.4995139698233307
 40
0.4995139698233307
 40
0.4995139698233307
 40
0.4995139698233307
 10
44.2568937565145
 20
40.51329849598265
 30
0.0
 10
44.25689241790931
 20
40.51333100980877
 30
0.0
 10
44.25686889362964
 20
40.51335990024909
 30
0.0
 10
44.25679401811419
 20
40.51342559690495
 30
0.0
 10
44.25655785531459
 20
40.51358691986508
 30
0.0
 10
44.25582281659437
 20
40.51400977345335
 30
0.0
 10
44.25358739605626
 20
40.51516302121971
 30
0.0
 10
44.24708701616769
 20
40.51831195149468
 30
0.0
 10
44.22995245608008
 20
40.52638410554516
 30
0.0
 10
44.19532968562503
 20
40.54296761184266
 30
0.0
 10
44.14633361335606
 20
40.5686669029013
 30
0.0
 10
44.0777572514995
 20
40.60955711964553
 30
0.0
 10
43.89896072895861
 20
40.71340508053996
 30
0.0
 10
43.52630123298903
 20
40.88040977350499
 30
0.0
 10
42.72760203432385
 20
41.06199402948169
 30
0.0
 10
41.09797044840212
 20
41.22888689335976
 30
0.0
 10
37.8216036093743
 20
41.27428136764128
 30
0.0
 10
31.28290909159374
 20
40.83817181103291
 30
0.0
 10
24.8438442259235
 20
39.67977885741143
 30
0.0
 10
21.60215011771824
 20
37.98811935945812
 30
0.0
 10
19.82201846276819
 20
35.78191285700977
 30
0.0
 10
19.77895546209479
 20
35.3564475104212
 30
0.0
 10
19.84949357851613
 20
35.10230814753023
 30
0.0
  0
SPLINE
  5
7E
330
1F
100
AcDbEntity
  8
0
  6
Continuous
 62
     7
370
    25
100
AcDbSpline
210
0.0
220
0.0
230
1.0
 70
     8
 71
     3
 72
    27
 73
    23
 74
     0
 42
0.00000001
 43
0.00000001
 40
0.4995139698233307
 40
0.4995139698233307
 40
0.4995139698233307
 40
0.4995139698233307
 40
0.5082622433973089
 40
0.5151158864862914
 40
0.518943693941709
 40
0.5228580787217049
 40
0.5306858577015402
 40
0.6245245051628068
 40
0.8122199398158244
 40
0.9060906369521964
 40
0.9530411174136026
 40
0.9765371015873582
 40
0.9882018854694392
 40
0.9942551300637728
 40
0.9972043752647656
 40
0.9988121529533702
 40
0.9996762761063428
 40
0.9999301024750727
 40
0.999985958242338
 40
0.9999971123315298
 40
0.9999992734435682
 40
1.0
 40
1.0
 40
1.0
 40
1.0
 10
19.84949357851614
 20
35.10230814753023
 30
0.0
 10
19.8608848349794
 20
35.06126696728888
 30
0.0
 10
19.88535576154047
 20
34.9848946388183
 30
0.0
 10
20.06998095424679
 20
34.90719386335427
 30
0.0
 10
20.27415838911081
 20
34.92365644733793
 30
0.0
 10
20.67631259073391
 20
35.00154928295394
 30
0.0
 10
25.29703710100449
 20
36.66369624773412
 30
0.0
 10
34.56113102028144
 20
39.92720975877121
 30
0.0
 10
39.39334734553249
 20
40.81037872140213
 30
0.0
 10
41.8476213503552
 20
40.92441833022114
 30
0.0
 10
43.07364673093726
 20
40.83143181005563
 30
0.0
 10
43.67175039448608
 20
40.70943449355952
 30
0.0
 10
43.97433967747347
 20
40.61572811290964
 30
0.0
 10
44.12028144627964
 20
40.56552801311268
 30
0.0
 10
44.19895927708465
 20
40.53571999672582
 30
0.0
 10
44.24101002110091
 20
40.51909021593181
 30
0.0
 10
44.25341629484158
 20
40.51434512590211
 30
0.0
 10
44.25618469564817
 20
40.51340730190158
 30
0.0
 10
44.25675274922131
 20
40.51327308503142
 30
0.0
 10
44.25686583966196
 20
40.51327268461291
 30
0.0
 10
44.2568937565147
 20
40.51329849598272
 30
0.0
 10
44.2568848917884
 20
40.51328879909625
 30
0.0
 10
44.25689375651451
 20
40.51329849598266
 30
0.0
  0
SPLINE
  5
7F
330
1F
100
AcDbEntity
  8
0
  6
Continuous
 62
     7
370
    25
100
AcDbSpline
210
0.0
220
0.0
230
1.0
 70
     8
 71
     3
 72
    27
 73
    23
 74
     0
 42
0.00000001
 43
0.00000001
 40
0.0
 40
0.0
 40
0.0
 40
0.0
 40
0.0000006218481167
 40
0.0000013338004781
 40
0.0000032373172767
 40
0.0000087026894791
 40
0.0000249073238003
 40
0.0000729746916433
 40
0.0002110009856284
 40
0.0005729489637823
 40
0.0013065505169947
 40
0.002363818372413
 40
0.003889554030138
 40
0.0078407606032179
 40
0.0156444830745822
 40
0.031296676450987
 40
0.0626009426203837
 40
0.1252165640653173
 40
0.2504451187639147
 40
0.3754675044658229
 40
0.4453420422279801
 40
0.4995139698233307
 40
0.4995139698233307
 40
0.4995139698233307
 40
0.4995139698233307
 10
-54.36578728351887
 20
25.38427018929598
 30
0.0
 10
-54.36581681011531
 20
25.38425651008345
 30
0.0
 10
-54.36583449904971
 20
25.38422372059009
 30
0.0
 10
-54.36586654122618
 20
25.38412940361211
 30
0.0
 10
-54.36592520861641
 20
25.38384948201113
 30
0.0
 10
-54.36603458725149
 20
25.38300857571937
 30
0.0
 10
-54.36624459085444
 20
25.38050198762406
 30
0.0
 10
-54.36666623539735
 20
25.37329137624555
 30
0.0
 10
-54.36756682104148
 20
25.35437202726341
 30
0.0
 10
-54.36963842245127
 20
25.31603852517058
 30
0.0
 10
-54.3746314863521
 20
25.26093736391615
 30
0.0
 10
-54.38616608314768
 20
25.18193305828896
 30
0.0
 10
-54.41368662177018
 20
24.97700571651005
 30
0.0
 10
-54.42536822441282
 20
24.56880330646284
 30
0.0
 10
-54.28748125116354
 20
23.76141217784228
 30
0.0
 10
-53.81803714343158
 20
22.1919617760892
 30
0.0
 10
-52.60616486146305
 20
19.14762179928424
 30
0.0
 10
-49.7010021069289
 20
13.27354766697314
 30
0.0
 10
-46.16666312245656
 20
7.76792522058729
 30
0.0
 10
-43.3632309083135
 20
5.42036044642381
 30
0.0
 10
-40.64373498443012
 20
4.62001192210314
 30
0.0
 10
-40.23417676201847
 20
4.743045436357389
 30
0.0
 10
-40.02637637474274
 20
4.905469082071158
 30
0.0
  0
SPLINE
  5
80
330
1F
100
AcDbEntity
  8
0
  6
Continuous
 62
     7
370
    25
100
AcDbSpline
210
0.0
220
0.0
230
1.0
 70
     8
 71
     3
 72
    27
 73
    23
 74
     0
 42
0.00000001
 43
0.00000001
 40
0.4995139698233307
 40
0.4995139698233307
 40
0.4995139698233307
 40
0.4995139698233307
 40
0.5082622433973089
 40
0.5151158864862914
 40
0.518943693941709
 40
0.5228580787217049
 40
0.5306858577015402
 40
0.6245245051628068
 40
0.8122199398158244
 40
0.9060906369521964
 40
0.9530411174136026
 40
0.9765371015873582
 40
0.9882018854694392
 40
0.9942551300637728
 40
0.9972043752647656
 40
0.9988121529533702
 40
0.9996762761063428
 40
0.9999301024750727
 40
0.999985958242338
 40
0.9999971123315298
 40
0.9999992734435682
 40
1.0
 40
1.0
 40
1.0
 40
1.0
 10
-40.02637637474274
 20
4.905469082071162
 30
0.0
 10
-39.99281851344996
 20
4.931699010490231
 30
0.0
 10
-39.93162430049531
 20
4.98353362347843
 30
0.0
 10
-39.93049114682977
 20
5.183839859657747
 30
0.0
 10
-40.02383591280977
 20
5.366175254584806
 30
0.0
 10
-40.24969725958184
 20
5.707908992687628
 30
0.0
 10
-43.55359553597187
 20
9.340825687522543
 30
0.0
 10
-50.11390413167459
 20
16.65083989483123
 30
0.0
 10
-52.77905498927623
 20
20.77725152441965
 30
0.0
 10
-53.82362384988969
 20
23.00106397572142
 30
0.0
 10
-54.20689510791718
 20
24.16934813188117
 30
0.0
 10
-54.32306864706213
 20
24.76861021677
 30
0.0
 10
-54.3522911453245
 20
25.08402614146093
 30
0.0
 10
-54.36176179760424
 20
25.23806950109481
 30
0.0
 10
-54.36433148370316
 20
25.32216537266088
 30
0.0
 10
-54.36505969265108
 20
25.36737913597809
 30
0.0
 10
-54.36542347651065
 20
25.38065690570128
 30
0.0
 10
-54.3656164612343
 20
25.38357346425175
 30
0.0
 10
-54.36570984570616
 20
25.38414963989389
 30
0.0
 10
-54.3657527536057
 20
25.38425427507086
 30
0.0
 10
-54.365787283519
 20
25.38427018929612
 30
0.0
 10
-54.36577493238018
 20
25.38426571019473
 30
0.0
 10
-54.36578728351888
 20
25.38427018929598
 30
0.0
  0
SPLINE
  5
81
330
1F
100
AcDbEntity
  8
0
  6
Continuous
 62
     7
370
    25
100
AcDbSpline
210
0.0
220
0.0
230
1.0
 70
     8
 71
     3
 72
    27
 73
    23
 74
     0
 42
0.00000001
 43
0.00000001
 40
0.4995139698233307
 40
0.4995139698233307
 40
0.4995139698233307
 40
0.4995139698233307
 40
0.5082622433973089
 40
0.5151158864862914
 40
0.518943693941709
 40
0.5228580787217049
 40
0.5306858577015402
 40
0.6245245051628068
 40
0.8122199398158244
 40
0.9060906369521964
 40
0.9530411174136026
 40
0.9765371015873582
 40
0.9882018854694392
 40
0.9942551300637728
 40
0.9972043752647656
 40
0.9988121529533702
 40
0.9996762761063428
 40
0.9999301024750727
 40
0.999985958242338
 40
0.9999971123315298
 40
0.9999992734435682
 40
1.0
 40
1.0
 40
1.0
 40
1.0
 10
-4.905469082071023
 20
-40.02637637474275
 30
0.0
 10
-4.931699010490089
 20
-39.99281851344998
 30
0.0
 10
-4.983533623478285
 20
-39.93162430049532
 30
0.0
 10
-5.183839859657608
 20
-39.93049114682978
 30
0.0
 10
-5.366175254584666
 20
-40.02383591280979
 30
0.0
 10
-5.707908992687486
 20
-40.24969725958186
 30
0.0
 10
-9.34082568752239
 20
-43.55359553597189
 30
0.0
 10
-16.65083989483106
 20
-50.11390413167464
 30
0.0
 10
-20.77725152441946
 20
-52.7790549892763
 30
0.0
 10
-23.00106397572123
 20
-53.82362384988976
 30
0.0
 10
-24.16934813188098
 20
-54.20689510791726
 30
0.0
 10
-24.7686102167698
 20
-54.32306864706222
 30
0.0
 10
-25.08402614146073
 20
-54.35229114532459
 30
0.0
 10
-25.23806950109462
 20
-54.36176179760432
 30
0.0
 10
-25.32216537266068
 20
-54.36433148370325
 30
0.0
 10
-25.3673791359779
 20
-54.36505969265117
 30
0.0
 10
-25.38065690570108
 20
-54.36542347651073
 30
0.0
 10
-25.38357346425156
 20
-54.36561646123439
 30
0.0
 10
-25.38414963989371
 20
-54.36570984570626
 30
0.0
 10
-25.38425427507067
 20
-54.36575275360579
 30
0.0
 10
-25.38427018929593
 20
-54.36578728351908
 30
0.0
 10
-25.38426571019454
 20
-54.36577493238026
 30
0.0
 10
-25.38427018929579
 20
-54.36578728351896
 30
0.0
  0
SPLINE
  5
82
330
1F
100
AcDbEntity
  8
0
  6
Continuous
 62
     7
370
    25
100
AcDbSpline
210
0.0
220
0.0
230
1.0
 70
     8
 71
     3
 72
    27
 73
    23
 74
     0
 42
0.00000001
 43
0.00000001
 40
0.0
 40
0.0
 40
0.0
 40
0.0
 40
0.0000006218481167
 40
0.0000013338004781
 40
0.0000032373172767
 40
0.0000087026894791
 40
0.0000249073238003
 40
0.0000729746916433
 40
0.0002110009856284
 40
0.0005729489637823
 40
0.0013065505169947
 40
0.002363818372413
 40
0.003889554030138
 40
0.0078407606032179
 40
0.0156444830745822
 40
0.031296676450987
 40
0.0626009426203837
 40
0.1252165640653173
 40
0.2504451187639147
 40
0.3754675044658229
 40
0.4453420422279801
 40
0.4995139698233307
 40
0.4995139698233307
 40
0.4995139698233307
 40
0.4995139698233307
 10
-25.38427018929578
 20
-54.36578728351896
 30
0.0
 10
-25.38425651008325
 20
-54.3658168101154
 30
0.0
 10
-25.38422372058989
 20
-54.3658344990498
 30
0.0
 10
-25.38412940361192
 20
-54.36586654122626
 30
0.0
 10
-25.38384948201093
 20
-54.3659252086165
 30
0.0
 10
-25.38300857571918
 20
-54.36603458725158
 30
0.0
 10
-25.38050198762387
 20
-54.36624459085453
 30
0.0
 10
-25.37329137624536
 20
-54.36666623539745
 30
0.0
 10
-25.35437202726322
 20
-54.36756682104156
 30
0.0
 10
-25.31603852517039
 20
-54.36963842245137
 30
0.0
 10
-25.26093736391596
 20
-54.37463148635219
 30
0.0
 10
-25.18193305828876
 20
-54.38616608314776
 30
0.0
 10
-24.97700571650985
 20
-54.41368662177027
 30
0.0
 10
-24.56880330646264
 20
-54.42536822441291
 30
0.0
 10
-23.76141217784209
 20
-54.28748125116362
 30
0.0
 10
-22.19196177608901
 20
-53.81803714343166
 30
0.0
 10
-19.14762179928406
 20
-52.60616486146312
 30
0.0
 10
-13.27354766697297
 20
-49.70100210692895
 30
0.0
 10
-7.767925220587131
 20
-46.16666312245659
 30
0.0
 10
-5.420360446423658
 20
-43.36323090831351
 30
0.0
 10
-4.620011922102995
 20
-40.64373498443013
 30
0.0
 10
-4.743045436357247
 20
-40.23417676201849
 30
0.0
 10
-4.905469082071016
 20
-40.02637637474275
 30
0.0
  0
CIRCLE
  5
93
330
1F
100
AcDbEntity
  8
0
  6
Continuous
 62
     7
370
    25
100
AcDbCircle
 10
0.0
 20
0.0
 30
0.0
 40
3.999999999999999
  0
ARC
  5
94
330
1F
100
AcDbEntity
  8
0
  6
Continuous
 62
     7
370
    25
100
AcDbCircle
 10
0.0
 20
0.0
 30
0.0
 40
60.0000000000002
100
AcDbArc
 50
19.9715639324
 51
42.4713643902
  0
ARC
  5
95
330
1F
100
AcDbEntity
  8
0
  6
Continuous
 62
     7
370
    25
100
AcDbCircle
 10
0.0
 20
0.0
 30
0.0
 40
60.00000000000023
100
AcDbArc
 50
357.4715639324
 51
19.9713643516
  0
ARC
  5
96
330
1F
100
AcDbEntity
  8
0
  6
Continuous
 62
     7
370
    25
100
AcDbCircle
 10
0.0
 20
0.0
 30
0.0
 40
60.00000000000087
100
AcDbArc
 50
334.9715639324
 51
357.4713643876
  0
ARC
  5
97
330
1F
100
AcDbEntity
  8
0
  6
Continuous
 62
     7
370
    25
100
AcDbCircle
 10
0.0
 20
0.0
 30
0.0
 40
59.99999999999915
100
AcDbArc
 50
312.4715639324
 51
334.9713643878
  0
ARC
  5
98
330
1F
100
AcDbEntity
  8
0
  6
Continuous
 62
     7
370
    25
100
AcDbCircle
 10
0.0
 20
0.0
 30
0.0
 40
60.0000000000007
100
AcDbArc
 50
289.9715639324
 51
312.4713643902
  0
ARC
  5
99
330
1F
100
AcDbEntity
  8
0
  6
Continuous
 62
     7
370
    25
100
AcDbCircle
 10
0.0
 20
0.0
 30
0.0
 40
59.99999999999998
100
AcDbArc
 50
267.4715639324
 51
289.9713643865
  0
ARC
  5
9A
330
1F
100
AcDbEntity
  8
0
  6
Continuous
 62
     7
370
    25
100
AcDbCircle
 10
0.0
 20
0.0
 30
0.0
 40
60.00000000000067
100
AcDbArc
 50
244.9715639324
 51
267.4713643876
  0
ARC
  5
9B
330
1F
100
AcDbEntity
  8
0
  6
Continuous
 62
     7
370
    25
100
AcDbCircle
 10
0.0
 20
0.0
 30
0.0
 40
59.99999999999891
100
AcDbArc
 50
222.4715639324
 51
244.9713643878
  0
ARC
  5
9C
330
1F
100
AcDbEntity
  8
0
  6
Continuous
 62
     7
370
    25
100
AcDbCircle
 10
0.0
 20
0.0
 30
0.0
 40
60.00000000000072
100
AcDbArc
 50
199.9715639324
 51
222.4713643902
  0
ARC
  5
9D
330
1F
100
AcDbEntity
  8
0
  6
Continuous
 62
     7
370
    25
100
AcDbCircle
 10
0.0
 20
0.0
 30
0.0
 40
60.00000000000004
100
AcDbArc
 50
177.4715639324
 51
199.9713643865
  0
ARC
  5
9E
330
1F
100
AcDbEntity
  8
0
  6
Continuous
 62
     7
370
    25
100
AcDbCircle
 10
0.0
 20
0.0
 30
0.0
 40
60.00000000000084
100
AcDbArc
 50
154.9715639324
 51
177.4713643876
  0
ARC
  5
9F
330
1F
100
AcDbEntity
  8
0
  6
Continuous
 62
     7
370
    25
100
AcDbCircle
 10
0.0
 20
0.0
 30
0.0
 40
59.99999999999917
100
AcDbArc
 50
132.4715639324
 51
154.9713643878
  0
ARC
  5
A0
330
1F
100
AcDbEntity
  8
0
  6
Continuous
 62
     7
370
    25
100
AcDbCircle
 10
0.0
 20
0.0
 30
0.0
 40
60.00000000000021
100
AcDbArc
 50
109.9715639324
 51
132.4713643902
  0
ARC
  5
A1
330
1F
100
AcDbEntity
  8
0
  6
Continuous
 62
     7
370
    25
100
AcDbCircle
 10
0.0
 20
0.0
 30
0.0
 40
59.99999999999941
100
AcDbArc
 50
87.4715639324
 51
109.9713643865
  0
ARC
  5
A2
330
1F
100
AcDbEntity
  8
0
  6
Continuous
 62
     7
370
    25
100
AcDbCircle
 10
0.0
 20
0.0
 30
0.0
 40
60.00000000000113
100
AcDbArc
 50
64.9715639324
 51
87.4713643876
  0
ARC
  5
A3
330
1F
100
AcDbEntity
  8
0
  6
Continuous
 62
     7
370
    25
100
AcDbCircle
 10
0.0
 20
0.0
 30
0.0
 40
59.99999999999907
100
AcDbArc
 50
42.4715639324
 51
64.9713643878
  0
MTEXT
  5
A5
330
1F
100
AcDbEntity
  8
0
  6
Continuous
 62
     7
100
AcDbMText
 10
-60.0
 20
-61.0195663917
 30
0.0
 40
4.83362
 41
0.0
 71
     1
 72
     1
  1
SOLIDWORKS Educational Product.
  7
SLDTEXTSTYLE0
 73
     1
 44
1.0
  0
MTEXT
  5
A6
330
1F
100
AcDbEntity
  8
0
  6
Continuous
 62
     7
100
AcDbMText
 10
-60.0
 20
-68.2699963917
 30
0.0
 40
4.83362
 41
0.0
 71
     1
 72
     1
  1
For Instructional Use Only.
  7
SLDTEXTSTYLE0
 73
     1
 44
1.0
  0
ENDSEC
  0
SECTION
  2
OBJECTS
  0
DICTIONARY
  5
C
330
0
100
AcDbDictionary
281
     1
  3
ACAD_GROUP
350
D
  3
ACAD_LAYOUT
350
1A
  3
ACAD_MLINESTYLE
350
17
  3
ACAD_PLOTSETTINGS
350
19
  3
ACAD_PLOTSTYLENAME
350
E
  3
ACAD_SCALELIST
350
47
  3
DWGPROPS
350
A7
  0
DICTIONARY
  5
D
102
{ACAD_REACTORS
330
C
102
}
330
C
100
AcDbDictionary
281
     1
  0
DICTIONARY
  5
1A
102
{ACAD_REACTORS
330
C
102
}
330
C
100
AcDbDictionary
281
     1
  3
Layout1
350
1E
  3
Layout2
350
26
  3
Model
350
22
  0
DICTIONARY
  5
17
102
{ACAD_REACTORS
330
C
102
}
330
C
100
AcDbDictionary
281
     1
  3
Standard
350
18
  0
DICTIONARY
  5
19
102
{ACAD_REACTORS
330
C
102
}
330
C
100
AcDbDictionary
281
     1
  0
ACDBDICTIONARYWDFLT
  5
E
102
{ACAD_REACTORS
330
C
102
}
330
C
100
AcDbDictionary
281
     1
  3
Normal
350
F
100
AcDbDictionaryWithDefault
340
F
  0
DICTIONARY
  5
47
102
{ACAD_REACTORS
330
C
102
}
330
C
100
AcDbDictionary
281
     1
  3
A0
350
48
  3
A1
350
49
  3
A2
350
4A
  3
A3
350
4B
  3
A4
350
4C
  3
A5
350
4D
  3
A6
350
4E
  3
A7
350
4F
  3
A8
350
50
  3
A9
350
51
  3
B0
350
52
  3
B1
350
53
  3
B2
350
54
  3
B3
350
55
  3
B4
350
56
  3
B5
350
57
  3
B6
350
58
  0
XRECORD
  5
A7
102
{ACAD_REACTORS
330
C
102
}
330
C
100
AcDbXrecord
280
     1
  1
DWGPROPS COOKIE
  2

  3

  4

  6

  7

  8
Frohar
  9

300
=
301
=
302
=
303
=
304
=
305
=
306
=
307
=
308
=
309
=
 40
0.0
 41
2460822.471192732
 42
2460822.471325255
  1

 90
        0
  0
LAYOUT
  5
1E
102
{ACAD_REACTORS
330
1A
102
}
330
1A
100
AcDbPlotSettings
  1

  2
none_device
  4

  6

 40
0.0
 41
0.0
 42
0.0
 43
0.0
 44
0.0
 45
0.0
 46
0.0
 47
0.0
 48
0.0
 49
0.0
140
0.0
141
0.0
142
1.0
143
1.0
 70
   688
 72
     1
 73
     0
 74
     5
  7

 75
    16
147
1.0
148
0.0
149
0.0
100
AcDbLayout
  1
Layout1
 70
     1
 71
     1
 10
0.0
 20
0.0
 11
420.0
 21
297.0
 12
0.0
 22
0.0
 32
0.0
 14
1.0000000000E+20
 24
1.0000000000E+20
 34
1.0000000000E+20
 15
-1.0000000000E+20
 25
-1.0000000000E+20
 35
-1.0000000000E+20
146
0.0
 13
0.0
 23
0.0
 33
0.0
 16
1.0
 26
0.0
 36
0.0
 17
0.0
 27
1.0
 37
0.0
 76
     0
330
1B
  0
LAYOUT
  5
26
102
{ACAD_REACTORS
330
1A
102
}
330
1A
100
AcDbPlotSettings
  1

  2
none_device
  4

  6

 40
0.0
 41
0.0
 42
0.0
 43
0.0
 44
0.0
 45
0.0
 46
0.0
 47
0.0
 48
0.0
 49
0.0
140
0.0
141
0.0
142
1.0
143
1.0
 70
   688
 72
     1
 73
     0
 74
     5
  7

 75
    16
147
1.0
148
0.0
149
0.0
100
AcDbLayout
  1
Layout2
 70
     1
 71
     2
 10
0.0
 20
0.0
 11
0.0
 21
0.0
 12
0.0
 22
0.0
 32
0.0
 14
0.0
 24
0.0
 34
0.0
 15
0.0
 25
0.0
 35
0.0
146
0.0
 13
0.0
 23
0.0
 33
0.0
 16
1.0
 26
0.0
 36
0.0
 17
0.0
 27
1.0
 37
0.0
 76
     0
330
23
  0
LAYOUT
  5
22
102
{ACAD_REACTORS
330
1A
102
}
330
1A
100
AcDbPlotSettings
  1

  2
none_device
  4
ANSI_A_(11.00_x_8.50_Inches)
  6

 40
6.35
 41
19.05
 42
6.35000508
 43
19.05000254
 44
279.4
 45
215.9
 46
133.34999746
 47
88.89999873
 48
0.0
 49
0.0
140
0.0
141
0.0
142
0.070125
143
1.0
 70
  1696
 72
     0
 73
     0
 74
     0
  7

 75
     0
147
0.0179189148
148
-1300.4909072572
149
0.0
100
AcDbLayout
  1
Model
 70
     1
 71
     0
 10
0.0
 20
0.0
 11
420.0
 21
297.0
 12
0.0
 22
0.0
 32
0.0
 14
-60.0
 24
-60.0
 34
0.0
 15
60.0
 25
60.0
 35
0.0
146
0.0
 13
0.0
 23
0.0
 33
0.0
 16
1.0
 26
0.0
 36
0.0
 17
0.0
 27
1.0
 37
0.0
 76
     0
330
1F
331
29
  0
MLINESTYLE
  5
18
102
{ACAD_REACTORS
330
17
102
}
330
17
100
AcDbMlineStyle
  2
Standard
 70
     0
  3

 62
   256
 51
90.0
 52
90.0
 71
     2
 49
0.5
 62
   256
  6
BYLAYER
 49
-0.5
 62
   256
  6
BYLAYER
  0
ACDBPLACEHOLDER
  5
F
102
{ACAD_REACTORS
330
E
102
}
330
E
  0
SCALE
  5
48
102
{ACAD_REACTORS
330
47
102
}
330
47
100
AcDbScale
 70
     0
300
1:1
140
1.0
141
1.0
290
     1
  0
SCALE
  5
49
102
{ACAD_REACTORS
330
47
102
}
330
47
100
AcDbScale
 70
     0
300
1:2
140
1.0
141
2.0
290
     0
  0
SCALE
  5
4A
102
{ACAD_REACTORS
330
47
102
}
330
47
100
AcDbScale
 70
     0
300
1:4
140
1.0
141
4.0
290
     0
  0
SCALE
  5
4B
102
{ACAD_REACTORS
330
47
102
}
330
47
100
AcDbScale
 70
     0
300
1:5
140
1.0
141
5.0
290
     0
  0
SCALE
  5
4C
102
{ACAD_REACTORS
330
47
102
}
330
47
100
AcDbScale
 70
     0
300
1:8
140
1.0
141
8.0
290
     0
  0
SCALE
  5
4D
102
{ACAD_REACTORS
330
47
102
}
330
47
100
AcDbScale
 70
     0
300
1:10
140
1.0
141
10.0
290
     0
  0
SCALE
  5
4E
102
{ACAD_REACTORS
330
47
102
}
330
47
100
AcDbScale
 70
     0
300
1:16
140
1.0
141
16.0
290
     0
  0
SCALE
  5
4F
102
{ACAD_REACTORS
330
47
102
}
330
47
100
AcDbScale
 70
     0
300
1:20
140
1.0
141
20.0
290
     0
  0
SCALE
  5
50
102
{ACAD_REACTORS
330
47
102
}
330
47
100
AcDbScale
 70
     0
300
1:30
140
1.0
141
30.0
290
     0
  0
SCALE
  5
51
102
{ACAD_REACTORS
330
47
102
}
330
47
100
AcDbScale
 70
     0
300
1:40
140
1.0
141
40.0
290
     0
  0
SCALE
  5
52
102
{ACAD_REACTORS
330
47
102
}
330
47
100
AcDbScale
 70
     0
300
1:50
140
1.0
141
50.0
290
     0
  0
SCALE
  5
53
102
{ACAD_REACTORS
330
47
102
}
330
47
100
AcDbScale
 70
     0
300
1:100
140
1.0
141
100.0
290
     0
  0
SCALE
  5
54
102
{ACAD_REACTORS
330
47
102
}
330
47
100
AcDbScale
 70
     0
300
2:1
140
2.0
141
1.0
290
     0
  0
SCALE
  5
55
102
{ACAD_REACTORS
330
47
102
}
330
47
100
AcDbScale
 70
     0
300
4:1
140
4.0
141
1.0
290
     0
  0
SCALE
  5
56
102
{ACAD_REACTORS
330
47
102
}
330
47
100
AcDbScale
 70
     0
300
8:1
140
8.0
141
1.0
290
     0
  0
SCALE
  5
57
102
{ACAD_REACTORS
330
47
102
}
330
47
100
AcDbScale
 70
     0
300
10:1
140
10.0
141
1.0
290
     0
  0
SCALE
  5
58
102
{ACAD_REACTORS
330
47
102
}
330
47
100
AcDbScale
 70
     0
300
100:1
140
100.0
141
1.0
290
     0
  0
ENDSEC
  0
EOF
